<mxfile host="app.diagrams.net" modified="2023-06-22T21:10:11.973Z" agent="Mozilla/5.0 (Windows NT 10.0; Win64; x64; rv:109.0) Gecko/20100101 Firefox/114.0" etag="vYHAuo81SOqyK6mKpWI2" version="21.5.0" type="device">
  <diagram id="C5RBs43oDa-KdzZeNtuy" name="Page-1">
    <mxGraphModel dx="2514" dy="965" grid="1" gridSize="10" guides="1" tooltips="1" connect="1" arrows="1" fold="1" page="1" pageScale="1" pageWidth="827" pageHeight="1169" math="0" shadow="0">
      <root>
        <mxCell id="WIyWlLk6GJQsqaUBKTNV-0" />
        <mxCell id="WIyWlLk6GJQsqaUBKTNV-1" parent="WIyWlLk6GJQsqaUBKTNV-0" />
        <mxCell id="VTuG99v95SFGHNX27neQ-0" value="Timurid Civil War" style="rounded=1;whiteSpace=wrap;html=1;fillColor=#dae8fc;strokeColor=#6c8ebf;" parent="WIyWlLk6GJQsqaUBKTNV-1" vertex="1">
          <mxGeometry x="250" y="40" width="480" height="60" as="geometry" />
        </mxCell>
        <mxCell id="VTuG99v95SFGHNX27neQ-1" value="Beghdilid Invasion of Iraq" style="rounded=1;whiteSpace=wrap;html=1;fillColor=#fff2cc;strokeColor=#d6b656;" parent="WIyWlLk6GJQsqaUBKTNV-1" vertex="1">
          <mxGeometry x="-90" y="280" width="120" height="60" as="geometry" />
        </mxCell>
        <mxCell id="VTuG99v95SFGHNX27neQ-2" value="Fails" style="rounded=1;whiteSpace=wrap;html=1;fillColor=#f8cecc;strokeColor=#b85450;" parent="WIyWlLk6GJQsqaUBKTNV-1" vertex="1">
          <mxGeometry x="-100" y="360" width="30" height="30" as="geometry" />
        </mxCell>
        <mxCell id="VTuG99v95SFGHNX27neQ-3" value="Success:&lt;br&gt;Vassalisation of Kurds" style="rounded=1;whiteSpace=wrap;html=1;fillColor=#d5e8d4;strokeColor=#82b366;" parent="WIyWlLk6GJQsqaUBKTNV-1" vertex="1">
          <mxGeometry x="10" y="360" width="80" height="40" as="geometry" />
        </mxCell>
        <mxCell id="VTuG99v95SFGHNX27neQ-5" value="" style="endArrow=classic;html=1;rounded=0;entryX=0.75;entryY=0;entryDx=0;entryDy=0;exitX=0;exitY=1;exitDx=0;exitDy=0;" parent="WIyWlLk6GJQsqaUBKTNV-1" source="VTuG99v95SFGHNX27neQ-0" target="VTuG99v95SFGHNX27neQ-1" edge="1">
          <mxGeometry width="50" height="50" relative="1" as="geometry">
            <mxPoint x="210" y="280" as="sourcePoint" />
            <mxPoint x="260" y="230" as="targetPoint" />
          </mxGeometry>
        </mxCell>
        <mxCell id="VTuG99v95SFGHNX27neQ-6" value="" style="endArrow=classic;html=1;rounded=0;exitX=0.5;exitY=1;exitDx=0;exitDy=0;entryX=0;entryY=0;entryDx=0;entryDy=0;" parent="WIyWlLk6GJQsqaUBKTNV-1" source="VTuG99v95SFGHNX27neQ-1" target="VTuG99v95SFGHNX27neQ-3" edge="1">
          <mxGeometry width="50" height="50" relative="1" as="geometry">
            <mxPoint y="300" as="sourcePoint" />
            <mxPoint x="40" y="370" as="targetPoint" />
          </mxGeometry>
        </mxCell>
        <mxCell id="VTuG99v95SFGHNX27neQ-9" value="Khorshids aligning with Zohrabids" style="rounded=1;whiteSpace=wrap;html=1;fillColor=#fff2cc;strokeColor=#d6b656;" parent="WIyWlLk6GJQsqaUBKTNV-1" vertex="1">
          <mxGeometry x="-5" y="570" width="110" height="60" as="geometry" />
        </mxCell>
        <mxCell id="VTuG99v95SFGHNX27neQ-10" value="" style="endArrow=classic;html=1;rounded=0;entryX=1;entryY=0;entryDx=0;entryDy=0;exitX=0.5;exitY=1;exitDx=0;exitDy=0;" parent="WIyWlLk6GJQsqaUBKTNV-1" source="VTuG99v95SFGHNX27neQ-1" target="VTuG99v95SFGHNX27neQ-2" edge="1">
          <mxGeometry width="50" height="50" relative="1" as="geometry">
            <mxPoint y="540" as="sourcePoint" />
            <mxPoint x="50" y="490" as="targetPoint" />
          </mxGeometry>
        </mxCell>
        <mxCell id="VTuG99v95SFGHNX27neQ-11" value="Rise of Farhad Khan" style="rounded=1;whiteSpace=wrap;html=1;fillColor=#d5e8d4;strokeColor=#82b366;" parent="WIyWlLk6GJQsqaUBKTNV-1" vertex="1">
          <mxGeometry x="910" y="250" width="120" height="60" as="geometry" />
        </mxCell>
        <mxCell id="VTuG99v95SFGHNX27neQ-12" value="" style="endArrow=classic;html=1;rounded=0;entryX=0.5;entryY=0;entryDx=0;entryDy=0;exitX=1;exitY=1;exitDx=0;exitDy=0;" parent="WIyWlLk6GJQsqaUBKTNV-1" source="VTuG99v95SFGHNX27neQ-0" target="VTuG99v95SFGHNX27neQ-11" edge="1">
          <mxGeometry width="50" height="50" relative="1" as="geometry">
            <mxPoint x="520" y="230" as="sourcePoint" />
            <mxPoint x="560" y="450" as="targetPoint" />
          </mxGeometry>
        </mxCell>
        <mxCell id="VTuG99v95SFGHNX27neQ-13" value="&lt;div&gt;Death of Abu Sa&#39;id Mirza:&lt;/div&gt;&lt;div&gt;Ajam - exluding Tehran - gets annexed to FRS&lt;br&gt;&lt;/div&gt;" style="rounded=1;whiteSpace=wrap;html=1;fillColor=#d5e8d4;strokeColor=#82b366;" parent="WIyWlLk6GJQsqaUBKTNV-1" vertex="1">
          <mxGeometry x="690" y="350" width="140" height="80" as="geometry" />
        </mxCell>
        <mxCell id="VTuG99v95SFGHNX27neQ-14" value="" style="endArrow=classic;html=1;rounded=0;entryX=0.5;entryY=0;entryDx=0;entryDy=0;exitX=0.5;exitY=1;exitDx=0;exitDy=0;" parent="WIyWlLk6GJQsqaUBKTNV-1" source="VTuG99v95SFGHNX27neQ-3" target="VTuG99v95SFGHNX27neQ-9" edge="1">
          <mxGeometry width="50" height="50" relative="1" as="geometry">
            <mxPoint x="120" y="490" as="sourcePoint" />
            <mxPoint x="200" y="480" as="targetPoint" />
          </mxGeometry>
        </mxCell>
        <mxCell id="VTuG99v95SFGHNX27neQ-15" value="" style="endArrow=classic;html=1;rounded=0;entryX=0.5;entryY=0;entryDx=0;entryDy=0;exitX=0.5;exitY=1;exitDx=0;exitDy=0;" parent="WIyWlLk6GJQsqaUBKTNV-1" source="VTuG99v95SFGHNX27neQ-11" target="VTuG99v95SFGHNX27neQ-13" edge="1">
          <mxGeometry width="50" height="50" relative="1" as="geometry">
            <mxPoint x="400" y="510" as="sourcePoint" />
            <mxPoint x="450" y="460" as="targetPoint" />
          </mxGeometry>
        </mxCell>
        <mxCell id="VTuG99v95SFGHNX27neQ-17" value="Confrontation of Zohrabids and Beghdilids" style="rounded=1;whiteSpace=wrap;html=1;fillColor=#d5e8d4;strokeColor=#82b366;" parent="WIyWlLk6GJQsqaUBKTNV-1" vertex="1">
          <mxGeometry x="40" y="750" width="260" height="60" as="geometry" />
        </mxCell>
        <mxCell id="VTuG99v95SFGHNX27neQ-18" value="" style="endArrow=classic;html=1;rounded=0;entryX=0.5;entryY=0;entryDx=0;entryDy=0;exitX=0.5;exitY=1;exitDx=0;exitDy=0;" parent="WIyWlLk6GJQsqaUBKTNV-1" source="VTuG99v95SFGHNX27neQ-9" target="VTuG99v95SFGHNX27neQ-17" edge="1">
          <mxGeometry width="50" height="50" relative="1" as="geometry">
            <mxPoint x="190" y="630" as="sourcePoint" />
            <mxPoint x="240" y="580" as="targetPoint" />
          </mxGeometry>
        </mxCell>
        <mxCell id="VTuG99v95SFGHNX27neQ-20" value="Unification of the Caucasian Turkomans" style="rounded=1;whiteSpace=wrap;html=1;fillColor=#d5e8d4;strokeColor=#82b366;" parent="WIyWlLk6GJQsqaUBKTNV-1" vertex="1">
          <mxGeometry x="210" y="280" width="120" height="60" as="geometry" />
        </mxCell>
        <mxCell id="VTuG99v95SFGHNX27neQ-21" value="Invasion of Tabriz" style="rounded=1;whiteSpace=wrap;html=1;fillColor=#d5e8d4;strokeColor=#82b366;" parent="WIyWlLk6GJQsqaUBKTNV-1" vertex="1">
          <mxGeometry x="320" y="370" width="60" height="60" as="geometry" />
        </mxCell>
        <mxCell id="VTuG99v95SFGHNX27neQ-22" value="Control over Georgia" style="rounded=1;whiteSpace=wrap;html=1;fillColor=#d5e8d4;strokeColor=#82b366;" parent="WIyWlLk6GJQsqaUBKTNV-1" vertex="1">
          <mxGeometry x="240" y="370" width="60" height="60" as="geometry" />
        </mxCell>
        <mxCell id="VTuG99v95SFGHNX27neQ-23" value="War with Shirvan" style="rounded=1;whiteSpace=wrap;html=1;fillColor=#fff2cc;strokeColor=#d6b656;" parent="WIyWlLk6GJQsqaUBKTNV-1" vertex="1">
          <mxGeometry x="160" y="370" width="60" height="60" as="geometry" />
        </mxCell>
        <mxCell id="VTuG99v95SFGHNX27neQ-24" value="" style="endArrow=classic;html=1;rounded=0;entryX=1;entryY=0;entryDx=0;entryDy=0;exitX=0.5;exitY=1;exitDx=0;exitDy=0;" parent="WIyWlLk6GJQsqaUBKTNV-1" source="VTuG99v95SFGHNX27neQ-20" target="VTuG99v95SFGHNX27neQ-23" edge="1">
          <mxGeometry width="50" height="50" relative="1" as="geometry">
            <mxPoint x="320" y="570" as="sourcePoint" />
            <mxPoint x="370" y="520" as="targetPoint" />
          </mxGeometry>
        </mxCell>
        <mxCell id="VTuG99v95SFGHNX27neQ-25" value="" style="endArrow=classic;html=1;rounded=0;entryX=0;entryY=0;entryDx=0;entryDy=0;exitX=0.5;exitY=1;exitDx=0;exitDy=0;" parent="WIyWlLk6GJQsqaUBKTNV-1" source="VTuG99v95SFGHNX27neQ-20" target="VTuG99v95SFGHNX27neQ-21" edge="1">
          <mxGeometry width="50" height="50" relative="1" as="geometry">
            <mxPoint x="260" y="490" as="sourcePoint" />
            <mxPoint x="310" y="440" as="targetPoint" />
          </mxGeometry>
        </mxCell>
        <mxCell id="VTuG99v95SFGHNX27neQ-26" value="" style="endArrow=classic;html=1;rounded=0;entryX=0.5;entryY=0;entryDx=0;entryDy=0;" parent="WIyWlLk6GJQsqaUBKTNV-1" target="VTuG99v95SFGHNX27neQ-22" edge="1">
          <mxGeometry width="50" height="50" relative="1" as="geometry">
            <mxPoint x="270" y="340" as="sourcePoint" />
            <mxPoint x="310" y="440" as="targetPoint" />
          </mxGeometry>
        </mxCell>
        <mxCell id="VTuG99v95SFGHNX27neQ-27" value="" style="endArrow=classic;html=1;rounded=0;entryX=0.5;entryY=0;entryDx=0;entryDy=0;exitX=0.25;exitY=1;exitDx=0;exitDy=0;" parent="WIyWlLk6GJQsqaUBKTNV-1" source="VTuG99v95SFGHNX27neQ-0" target="VTuG99v95SFGHNX27neQ-20" edge="1">
          <mxGeometry width="50" height="50" relative="1" as="geometry">
            <mxPoint x="470" y="470" as="sourcePoint" />
            <mxPoint x="520" y="420" as="targetPoint" />
          </mxGeometry>
        </mxCell>
        <mxCell id="VTuG99v95SFGHNX27neQ-29" value="Trouble in the Caucaus&lt;br&gt;&lt;div&gt; (Beghdilid decision):&lt;/div&gt;&lt;div&gt;War against TKO&lt;br&gt;&lt;/div&gt;" style="rounded=1;whiteSpace=wrap;html=1;fillColor=#d5e8d4;strokeColor=#82b366;" parent="WIyWlLk6GJQsqaUBKTNV-1" vertex="1">
          <mxGeometry x="210" y="460" width="120" height="60" as="geometry" />
        </mxCell>
        <mxCell id="VTuG99v95SFGHNX27neQ-30" value="" style="endArrow=classic;html=1;rounded=0;entryX=0;entryY=0;entryDx=0;entryDy=0;exitX=1;exitY=1;exitDx=0;exitDy=0;" parent="WIyWlLk6GJQsqaUBKTNV-1" source="VTuG99v95SFGHNX27neQ-3" target="VTuG99v95SFGHNX27neQ-29" edge="1">
          <mxGeometry width="50" height="50" relative="1" as="geometry">
            <mxPoint x="240" y="490" as="sourcePoint" />
            <mxPoint x="290" y="440" as="targetPoint" />
          </mxGeometry>
        </mxCell>
        <mxCell id="VTuG99v95SFGHNX27neQ-31" value="" style="endArrow=classic;html=1;rounded=0;exitX=0.5;exitY=1;exitDx=0;exitDy=0;" parent="WIyWlLk6GJQsqaUBKTNV-1" source="VTuG99v95SFGHNX27neQ-22" target="VTuG99v95SFGHNX27neQ-29" edge="1">
          <mxGeometry width="50" height="50" relative="1" as="geometry">
            <mxPoint x="240" y="490" as="sourcePoint" />
            <mxPoint x="290" y="440" as="targetPoint" />
          </mxGeometry>
        </mxCell>
        <mxCell id="VTuG99v95SFGHNX27neQ-32" value="" style="endArrow=classic;html=1;rounded=0;exitX=0;exitY=1;exitDx=0;exitDy=0;entryX=0.5;entryY=0;entryDx=0;entryDy=0;" parent="WIyWlLk6GJQsqaUBKTNV-1" source="VTuG99v95SFGHNX27neQ-21" target="VTuG99v95SFGHNX27neQ-29" edge="1">
          <mxGeometry width="50" height="50" relative="1" as="geometry">
            <mxPoint x="240" y="490" as="sourcePoint" />
            <mxPoint x="290" y="440" as="targetPoint" />
          </mxGeometry>
        </mxCell>
        <mxCell id="VTuG99v95SFGHNX27neQ-33" value="" style="endArrow=classic;html=1;rounded=0;entryX=0.5;entryY=0;entryDx=0;entryDy=0;exitX=1;exitY=1;exitDx=0;exitDy=0;" parent="WIyWlLk6GJQsqaUBKTNV-1" source="VTuG99v95SFGHNX27neQ-23" target="VTuG99v95SFGHNX27neQ-29" edge="1">
          <mxGeometry width="50" height="50" relative="1" as="geometry">
            <mxPoint x="240" y="490" as="sourcePoint" />
            <mxPoint x="290" y="440" as="targetPoint" />
          </mxGeometry>
        </mxCell>
        <mxCell id="VTuG99v95SFGHNX27neQ-34" value="Seek support from Farhad Khan&lt;br&gt;(Turkomans):&lt;br&gt;Vassalisation by FRS" style="rounded=1;whiteSpace=wrap;html=1;fillColor=#d5e8d4;strokeColor=#82b366;" parent="WIyWlLk6GJQsqaUBKTNV-1" vertex="1">
          <mxGeometry x="160" y="570" width="220" height="60" as="geometry" />
        </mxCell>
        <mxCell id="VTuG99v95SFGHNX27neQ-35" value="" style="endArrow=classic;html=1;rounded=0;entryX=0.5;entryY=0;entryDx=0;entryDy=0;exitX=0.5;exitY=1;exitDx=0;exitDy=0;" parent="WIyWlLk6GJQsqaUBKTNV-1" source="VTuG99v95SFGHNX27neQ-29" target="VTuG99v95SFGHNX27neQ-34" edge="1">
          <mxGeometry width="50" height="50" relative="1" as="geometry">
            <mxPoint x="200" y="520" as="sourcePoint" />
            <mxPoint x="250" y="470" as="targetPoint" />
          </mxGeometry>
        </mxCell>
        <mxCell id="VTuG99v95SFGHNX27neQ-36" value="&lt;font face=&quot;Helvetica&quot;&gt;Secure Anglo-Norse trading rights &lt;/font&gt;" style="rounded=1;whiteSpace=wrap;html=1;fillColor=#d5e8d4;strokeColor=#82b366;" parent="WIyWlLk6GJQsqaUBKTNV-1" vertex="1">
          <mxGeometry x="1100" y="350" width="120" height="80" as="geometry" />
        </mxCell>
        <mxCell id="VTuG99v95SFGHNX27neQ-37" value="" style="endArrow=classic;html=1;rounded=0;fontFamily=Helvetica;entryX=0.5;entryY=0;entryDx=0;entryDy=0;exitX=0.5;exitY=1;exitDx=0;exitDy=0;" parent="WIyWlLk6GJQsqaUBKTNV-1" source="VTuG99v95SFGHNX27neQ-11" target="VTuG99v95SFGHNX27neQ-36" edge="1">
          <mxGeometry width="50" height="50" relative="1" as="geometry">
            <mxPoint x="780" y="320" as="sourcePoint" />
            <mxPoint x="840" y="480" as="targetPoint" />
          </mxGeometry>
        </mxCell>
        <mxCell id="VTuG99v95SFGHNX27neQ-38" value="Anglo-Norse Support for Farhad Khan" style="rounded=1;whiteSpace=wrap;html=1;fontFamily=Helvetica;fillColor=#d5e8d4;strokeColor=#82b366;" parent="WIyWlLk6GJQsqaUBKTNV-1" vertex="1">
          <mxGeometry x="1100" y="470" width="120" height="60" as="geometry" />
        </mxCell>
        <mxCell id="VTuG99v95SFGHNX27neQ-39" value="" style="endArrow=classic;html=1;rounded=0;fontFamily=Helvetica;entryX=0.5;entryY=0;entryDx=0;entryDy=0;exitX=0.5;exitY=1;exitDx=0;exitDy=0;" parent="WIyWlLk6GJQsqaUBKTNV-1" source="VTuG99v95SFGHNX27neQ-36" target="VTuG99v95SFGHNX27neQ-38" edge="1">
          <mxGeometry width="50" height="50" relative="1" as="geometry">
            <mxPoint x="790" y="530" as="sourcePoint" />
            <mxPoint x="840" y="480" as="targetPoint" />
          </mxGeometry>
        </mxCell>
        <mxCell id="VTuG99v95SFGHNX27neQ-40" value="&lt;div&gt;Fall of Kerman:&lt;/div&gt;&lt;div&gt;Kerman state annexed by FRS&lt;br&gt;&lt;/div&gt;" style="rounded=1;whiteSpace=wrap;html=1;fontFamily=Helvetica;fillColor=#d5e8d4;strokeColor=#82b366;" parent="WIyWlLk6GJQsqaUBKTNV-1" vertex="1">
          <mxGeometry x="840" y="350" width="120" height="80" as="geometry" />
        </mxCell>
        <mxCell id="VTuG99v95SFGHNX27neQ-41" value="The French Demands:&lt;br&gt;War against Oman for French support &lt;br&gt;or&amp;nbsp; &lt;br&gt;losing Modifiers of France owning Minab + Minab annexed by FRS" style="rounded=1;whiteSpace=wrap;html=1;fontFamily=Helvetica;fillColor=#d5e8d4;strokeColor=#82b366;" parent="WIyWlLk6GJQsqaUBKTNV-1" vertex="1">
          <mxGeometry x="910" y="455" width="120" height="130" as="geometry" />
        </mxCell>
        <mxCell id="VTuG99v95SFGHNX27neQ-42" value="French Trading Posts getting harassed by Omani Pirates" style="rounded=1;whiteSpace=wrap;html=1;fontFamily=Helvetica;fillColor=#d5e8d4;strokeColor=#82b366;" parent="WIyWlLk6GJQsqaUBKTNV-1" vertex="1">
          <mxGeometry x="970" y="350" width="120" height="80" as="geometry" />
        </mxCell>
        <mxCell id="VTuG99v95SFGHNX27neQ-43" value="" style="endArrow=classic;html=1;rounded=0;fontFamily=Helvetica;entryX=0.054;entryY=0.03;entryDx=0;entryDy=0;entryPerimeter=0;exitX=0.5;exitY=1;exitDx=0;exitDy=0;" parent="WIyWlLk6GJQsqaUBKTNV-1" source="VTuG99v95SFGHNX27neQ-40" target="VTuG99v95SFGHNX27neQ-41" edge="1">
          <mxGeometry width="50" height="50" relative="1" as="geometry">
            <mxPoint x="790" y="530" as="sourcePoint" />
            <mxPoint x="840" y="480" as="targetPoint" />
          </mxGeometry>
        </mxCell>
        <mxCell id="VTuG99v95SFGHNX27neQ-44" value="" style="endArrow=classic;html=1;rounded=0;fontFamily=Helvetica;entryX=0.938;entryY=0.017;entryDx=0;entryDy=0;entryPerimeter=0;exitX=0.5;exitY=1;exitDx=0;exitDy=0;" parent="WIyWlLk6GJQsqaUBKTNV-1" source="VTuG99v95SFGHNX27neQ-42" target="VTuG99v95SFGHNX27neQ-41" edge="1">
          <mxGeometry width="50" height="50" relative="1" as="geometry">
            <mxPoint x="790" y="530" as="sourcePoint" />
            <mxPoint x="840" y="480" as="targetPoint" />
          </mxGeometry>
        </mxCell>
        <mxCell id="VTuG99v95SFGHNX27neQ-45" value="" style="endArrow=classic;html=1;rounded=0;fontFamily=Helvetica;entryX=0.5;entryY=0;entryDx=0;entryDy=0;exitX=0.5;exitY=1;exitDx=0;exitDy=0;" parent="WIyWlLk6GJQsqaUBKTNV-1" source="VTuG99v95SFGHNX27neQ-11" target="VTuG99v95SFGHNX27neQ-40" edge="1">
          <mxGeometry width="50" height="50" relative="1" as="geometry">
            <mxPoint x="780" y="320" as="sourcePoint" />
            <mxPoint x="830" y="430" as="targetPoint" />
          </mxGeometry>
        </mxCell>
        <mxCell id="VTuG99v95SFGHNX27neQ-46" value="" style="endArrow=classic;html=1;rounded=0;fontFamily=Helvetica;entryX=0.5;entryY=0;entryDx=0;entryDy=0;exitX=0.5;exitY=1;exitDx=0;exitDy=0;" parent="WIyWlLk6GJQsqaUBKTNV-1" source="VTuG99v95SFGHNX27neQ-11" target="VTuG99v95SFGHNX27neQ-42" edge="1">
          <mxGeometry width="50" height="50" relative="1" as="geometry">
            <mxPoint x="780" y="480" as="sourcePoint" />
            <mxPoint x="830" y="430" as="targetPoint" />
          </mxGeometry>
        </mxCell>
        <mxCell id="VTuG99v95SFGHNX27neQ-48" value="Claiming the Timurid Succession" style="rounded=1;whiteSpace=wrap;html=1;fontFamily=Helvetica;fillColor=#d5e8d4;strokeColor=#82b366;" parent="WIyWlLk6GJQsqaUBKTNV-1" vertex="1">
          <mxGeometry x="700" y="470" width="120" height="60" as="geometry" />
        </mxCell>
        <mxCell id="VTuG99v95SFGHNX27neQ-49" value="" style="endArrow=classic;html=1;rounded=0;fontFamily=Helvetica;entryX=0.5;entryY=0;entryDx=0;entryDy=0;exitX=0.5;exitY=1;exitDx=0;exitDy=0;" parent="WIyWlLk6GJQsqaUBKTNV-1" source="VTuG99v95SFGHNX27neQ-13" target="VTuG99v95SFGHNX27neQ-48" edge="1">
          <mxGeometry width="50" height="50" relative="1" as="geometry">
            <mxPoint x="810" y="560" as="sourcePoint" />
            <mxPoint x="860" y="510" as="targetPoint" />
          </mxGeometry>
        </mxCell>
        <mxCell id="VTuG99v95SFGHNX27neQ-50" value="Demand the Subjegation of the Khorasani Khanates" style="rounded=1;whiteSpace=wrap;html=1;fontFamily=Helvetica;fillColor=#fff2cc;strokeColor=#d6b656;" parent="WIyWlLk6GJQsqaUBKTNV-1" vertex="1">
          <mxGeometry x="940" y="1650" width="90" height="60" as="geometry" />
        </mxCell>
        <mxCell id="VTuG99v95SFGHNX27neQ-52" value="" style="endArrow=classic;html=1;rounded=0;fontFamily=Helvetica;entryX=0.5;entryY=0;entryDx=0;entryDy=0;exitX=0.5;exitY=1;exitDx=0;exitDy=0;" parent="WIyWlLk6GJQsqaUBKTNV-1" source="VTuG99v95SFGHNX27neQ-34" target="VTuG99v95SFGHNX27neQ-17" edge="1">
          <mxGeometry width="50" height="50" relative="1" as="geometry">
            <mxPoint x="270" y="640" as="sourcePoint" />
            <mxPoint x="320" y="590" as="targetPoint" />
          </mxGeometry>
        </mxCell>
        <mxCell id="VTuG99v95SFGHNX27neQ-53" value="" style="endArrow=classic;html=1;rounded=0;fontFamily=Helvetica;exitX=0.5;exitY=1;exitDx=0;exitDy=0;entryX=0.5;entryY=0;entryDx=0;entryDy=0;" parent="WIyWlLk6GJQsqaUBKTNV-1" source="VTuG99v95SFGHNX27neQ-17" target="VTuG99v95SFGHNX27neQ-54" edge="1">
          <mxGeometry width="50" height="50" relative="1" as="geometry">
            <mxPoint x="230" y="750" as="sourcePoint" />
            <mxPoint x="100" y="860" as="targetPoint" />
          </mxGeometry>
        </mxCell>
        <mxCell id="VTuG99v95SFGHNX27neQ-54" value="Beghdilids Winning:&lt;br&gt;Ottoman Borders from the 17th century" style="rounded=1;whiteSpace=wrap;html=1;fontFamily=Helvetica;fillColor=#fff2cc;strokeColor=#d6b656;" parent="WIyWlLk6GJQsqaUBKTNV-1" vertex="1">
          <mxGeometry x="-10" y="870" width="120" height="60" as="geometry" />
        </mxCell>
        <mxCell id="VTuG99v95SFGHNX27neQ-55" value="Zohrabids Winning:&lt;br&gt;Gaining all Kurdish vassals in the Zagros+MFQ+Iraq" style="rounded=1;whiteSpace=wrap;html=1;fontFamily=Helvetica;fillColor=#d5e8d4;strokeColor=#82b366;" parent="WIyWlLk6GJQsqaUBKTNV-1" vertex="1">
          <mxGeometry x="240" y="870" width="120" height="60" as="geometry" />
        </mxCell>
        <mxCell id="VTuG99v95SFGHNX27neQ-56" value="" style="endArrow=classic;html=1;rounded=0;fontFamily=Helvetica;entryX=0.5;entryY=0;entryDx=0;entryDy=0;exitX=0.5;exitY=1;exitDx=0;exitDy=0;" parent="WIyWlLk6GJQsqaUBKTNV-1" source="VTuG99v95SFGHNX27neQ-17" target="VTuG99v95SFGHNX27neQ-55" edge="1">
          <mxGeometry width="50" height="50" relative="1" as="geometry">
            <mxPoint x="230" y="800" as="sourcePoint" />
            <mxPoint x="280" y="750" as="targetPoint" />
          </mxGeometry>
        </mxCell>
        <mxCell id="VTuG99v95SFGHNX27neQ-57" value="Chosing between a French or Anglo-Norse alliance&lt;br&gt;(France only available if Oman has been dealt with)" style="rounded=1;whiteSpace=wrap;html=1;fontFamily=Helvetica;fillColor=#d5e8d4;strokeColor=#82b366;" parent="WIyWlLk6GJQsqaUBKTNV-1" vertex="1">
          <mxGeometry x="1010" y="640" width="120" height="100" as="geometry" />
        </mxCell>
        <mxCell id="VTuG99v95SFGHNX27neQ-58" value="" style="endArrow=classic;html=1;rounded=0;fontFamily=Helvetica;entryX=0.102;entryY=0.007;entryDx=0;entryDy=0;entryPerimeter=0;exitX=0.5;exitY=1;exitDx=0;exitDy=0;" parent="WIyWlLk6GJQsqaUBKTNV-1" source="VTuG99v95SFGHNX27neQ-41" target="VTuG99v95SFGHNX27neQ-57" edge="1">
          <mxGeometry width="50" height="50" relative="1" as="geometry">
            <mxPoint x="870" y="590" as="sourcePoint" />
            <mxPoint x="920" y="540" as="targetPoint" />
          </mxGeometry>
        </mxCell>
        <mxCell id="VTuG99v95SFGHNX27neQ-59" value="" style="endArrow=classic;html=1;rounded=0;fontFamily=Helvetica;entryX=1;entryY=0;entryDx=0;entryDy=0;exitX=0.5;exitY=1;exitDx=0;exitDy=0;" parent="WIyWlLk6GJQsqaUBKTNV-1" source="VTuG99v95SFGHNX27neQ-38" target="VTuG99v95SFGHNX27neQ-57" edge="1">
          <mxGeometry width="50" height="50" relative="1" as="geometry">
            <mxPoint x="870" y="590" as="sourcePoint" />
            <mxPoint x="920" y="540" as="targetPoint" />
          </mxGeometry>
        </mxCell>
        <mxCell id="VTuG99v95SFGHNX27neQ-60" value="&lt;div&gt;Deal with the Zoroastrians:&lt;/div&gt;&lt;div&gt;A) Accepting Dari and granting Zoroastrians autonomy&lt;br&gt;B)Crushing Zoroastrian Resistance, most flee to India&lt;br&gt;&lt;/div&gt;" style="rounded=1;whiteSpace=wrap;html=1;fontFamily=Helvetica;fillColor=#d5e8d4;strokeColor=#82b366;" parent="WIyWlLk6GJQsqaUBKTNV-1" vertex="1">
          <mxGeometry x="695" y="650" width="130" height="140" as="geometry" />
        </mxCell>
        <mxCell id="VTuG99v95SFGHNX27neQ-61" value="" style="endArrow=classic;html=1;rounded=0;fontFamily=Helvetica;entryX=0.5;entryY=0;entryDx=0;entryDy=0;exitX=0.5;exitY=1;exitDx=0;exitDy=0;" parent="WIyWlLk6GJQsqaUBKTNV-1" source="VTuG99v95SFGHNX27neQ-48" target="VTuG99v95SFGHNX27neQ-60" edge="1">
          <mxGeometry width="50" height="50" relative="1" as="geometry">
            <mxPoint x="730" y="650" as="sourcePoint" />
            <mxPoint x="780" y="600" as="targetPoint" />
          </mxGeometry>
        </mxCell>
        <mxCell id="VTuG99v95SFGHNX27neQ-62" value="Restoring order in Khorasan" style="rounded=1;whiteSpace=wrap;html=1;fontFamily=Helvetica;fillColor=#fff2cc;strokeColor=#d6b656;" parent="WIyWlLk6GJQsqaUBKTNV-1" vertex="1">
          <mxGeometry x="970" y="1740" width="90" height="60" as="geometry" />
        </mxCell>
        <mxCell id="VTuG99v95SFGHNX27neQ-64" value="" style="endArrow=classic;html=1;rounded=0;fontFamily=Helvetica;entryX=0.5;entryY=0;entryDx=0;entryDy=0;exitX=0.5;exitY=1;exitDx=0;exitDy=0;" parent="WIyWlLk6GJQsqaUBKTNV-1" source="VTuG99v95SFGHNX27neQ-50" target="VTuG99v95SFGHNX27neQ-62" edge="1">
          <mxGeometry width="50" height="50" relative="1" as="geometry">
            <mxPoint x="1420" y="1560" as="sourcePoint" />
            <mxPoint x="1470" y="1510" as="targetPoint" />
          </mxGeometry>
        </mxCell>
        <mxCell id="VTuG99v95SFGHNX27neQ-68" value="Western Investment into Fars" style="rounded=1;whiteSpace=wrap;html=1;fontFamily=Helvetica;fillColor=#d5e8d4;strokeColor=#82b366;" parent="WIyWlLk6GJQsqaUBKTNV-1" vertex="1">
          <mxGeometry x="1010" y="770" width="120" height="60" as="geometry" />
        </mxCell>
        <mxCell id="VTuG99v95SFGHNX27neQ-69" value="" style="endArrow=classic;html=1;rounded=0;fontFamily=Helvetica;entryX=0.5;entryY=0;entryDx=0;entryDy=0;exitX=0.5;exitY=1;exitDx=0;exitDy=0;" parent="WIyWlLk6GJQsqaUBKTNV-1" source="VTuG99v95SFGHNX27neQ-57" target="VTuG99v95SFGHNX27neQ-68" edge="1">
          <mxGeometry width="50" height="50" relative="1" as="geometry">
            <mxPoint x="910" y="710" as="sourcePoint" />
            <mxPoint x="960" y="660" as="targetPoint" />
          </mxGeometry>
        </mxCell>
        <mxCell id="VTuG99v95SFGHNX27neQ-74" value="Patronisation of the Mawlawiyya " style="rounded=1;whiteSpace=wrap;html=1;fontFamily=Helvetica;fillColor=#d5e8d4;strokeColor=#82b366;" parent="WIyWlLk6GJQsqaUBKTNV-1" vertex="1">
          <mxGeometry x="830" y="460" width="70" height="50" as="geometry" />
        </mxCell>
        <mxCell id="VTuG99v95SFGHNX27neQ-75" value="" style="endArrow=classic;html=1;rounded=0;fontFamily=Helvetica;entryX=0.75;entryY=0;entryDx=0;entryDy=0;exitX=0.5;exitY=1;exitDx=0;exitDy=0;" parent="WIyWlLk6GJQsqaUBKTNV-1" source="VTuG99v95SFGHNX27neQ-40" target="VTuG99v95SFGHNX27neQ-74" edge="1">
          <mxGeometry width="50" height="50" relative="1" as="geometry">
            <mxPoint x="990" y="600" as="sourcePoint" />
            <mxPoint x="1040" y="550" as="targetPoint" />
          </mxGeometry>
        </mxCell>
        <mxCell id="VTuG99v95SFGHNX27neQ-76" value="The Protector of the People" style="rounded=1;whiteSpace=wrap;html=1;fontFamily=Helvetica;fillColor=#fff2cc;strokeColor=#d6b656;" parent="WIyWlLk6GJQsqaUBKTNV-1" vertex="1">
          <mxGeometry x="720" y="950" width="440" height="60" as="geometry" />
        </mxCell>
        <mxCell id="VTuG99v95SFGHNX27neQ-78" value="" style="endArrow=classic;html=1;rounded=0;fontFamily=Helvetica;entryX=0.5;entryY=0;entryDx=0;entryDy=0;exitX=0.5;exitY=1;exitDx=0;exitDy=0;" parent="WIyWlLk6GJQsqaUBKTNV-1" source="VTuG99v95SFGHNX27neQ-60" edge="1">
          <mxGeometry width="50" height="50" relative="1" as="geometry">
            <mxPoint x="880" y="820" as="sourcePoint" />
            <mxPoint x="930" y="950" as="targetPoint" />
          </mxGeometry>
        </mxCell>
        <mxCell id="VTuG99v95SFGHNX27neQ-79" value="" style="endArrow=classic;html=1;rounded=0;fontFamily=Helvetica;entryX=0.5;entryY=0;entryDx=0;entryDy=0;exitX=0.5;exitY=1;exitDx=0;exitDy=0;" parent="WIyWlLk6GJQsqaUBKTNV-1" source="VTuG99v95SFGHNX27neQ-68" edge="1">
          <mxGeometry width="50" height="50" relative="1" as="geometry">
            <mxPoint x="880" y="820" as="sourcePoint" />
            <mxPoint x="930" y="950" as="targetPoint" />
          </mxGeometry>
        </mxCell>
        <mxCell id="uH8B2-jDxrQE62gsc945-1" value="Tribal turmoil in the Beghdilids" style="rounded=1;whiteSpace=wrap;html=1;fillColor=#f8cecc;strokeColor=#b85450;" parent="WIyWlLk6GJQsqaUBKTNV-1" vertex="1">
          <mxGeometry x="240" y="1040" width="120" height="60" as="geometry" />
        </mxCell>
        <mxCell id="uH8B2-jDxrQE62gsc945-3" value="" style="endArrow=classic;html=1;rounded=0;entryX=0.5;entryY=0;entryDx=0;entryDy=0;exitX=0.5;exitY=1;exitDx=0;exitDy=0;" parent="WIyWlLk6GJQsqaUBKTNV-1" source="VTuG99v95SFGHNX27neQ-55" target="uH8B2-jDxrQE62gsc945-1" edge="1">
          <mxGeometry width="50" height="50" relative="1" as="geometry">
            <mxPoint x="620" y="820" as="sourcePoint" />
            <mxPoint x="670" y="770" as="targetPoint" />
          </mxGeometry>
        </mxCell>
        <mxCell id="uH8B2-jDxrQE62gsc945-4" value="Civil War " style="rounded=1;whiteSpace=wrap;html=1;fillColor=#f8cecc;strokeColor=#b85450;" parent="WIyWlLk6GJQsqaUBKTNV-1" vertex="1">
          <mxGeometry x="240" y="1130" width="120" height="60" as="geometry" />
        </mxCell>
        <mxCell id="uH8B2-jDxrQE62gsc945-5" value="" style="endArrow=classic;html=1;rounded=0;entryX=0.5;entryY=0;entryDx=0;entryDy=0;exitX=0.5;exitY=1;exitDx=0;exitDy=0;" parent="WIyWlLk6GJQsqaUBKTNV-1" source="uH8B2-jDxrQE62gsc945-1" target="uH8B2-jDxrQE62gsc945-4" edge="1">
          <mxGeometry width="50" height="50" relative="1" as="geometry">
            <mxPoint x="620" y="890" as="sourcePoint" />
            <mxPoint x="670" y="840" as="targetPoint" />
          </mxGeometry>
        </mxCell>
        <mxCell id="uH8B2-jDxrQE62gsc945-6" value="Removel of Tribal influences" style="rounded=1;whiteSpace=wrap;html=1;fillColor=#f8cecc;strokeColor=#b85450;" parent="WIyWlLk6GJQsqaUBKTNV-1" vertex="1">
          <mxGeometry x="110" y="1220" width="120" height="60" as="geometry" />
        </mxCell>
        <mxCell id="uH8B2-jDxrQE62gsc945-7" value="" style="endArrow=classic;html=1;rounded=0;entryX=1;entryY=0;entryDx=0;entryDy=0;exitX=0.5;exitY=1;exitDx=0;exitDy=0;" parent="WIyWlLk6GJQsqaUBKTNV-1" source="uH8B2-jDxrQE62gsc945-4" target="uH8B2-jDxrQE62gsc945-6" edge="1">
          <mxGeometry width="50" height="50" relative="1" as="geometry">
            <mxPoint x="620" y="890" as="sourcePoint" />
            <mxPoint x="670" y="840" as="targetPoint" />
          </mxGeometry>
        </mxCell>
        <mxCell id="uH8B2-jDxrQE62gsc945-8" value="Modernisation process" style="rounded=1;whiteSpace=wrap;html=1;fillColor=#f8cecc;strokeColor=#b85450;" parent="WIyWlLk6GJQsqaUBKTNV-1" vertex="1">
          <mxGeometry x="-10" y="1040" width="120" height="60" as="geometry" />
        </mxCell>
        <mxCell id="uH8B2-jDxrQE62gsc945-9" value="" style="endArrow=classic;html=1;rounded=0;entryX=0.5;entryY=0;entryDx=0;entryDy=0;exitX=0.5;exitY=1;exitDx=0;exitDy=0;" parent="WIyWlLk6GJQsqaUBKTNV-1" source="VTuG99v95SFGHNX27neQ-54" target="uH8B2-jDxrQE62gsc945-8" edge="1">
          <mxGeometry width="50" height="50" relative="1" as="geometry">
            <mxPoint x="620" y="780" as="sourcePoint" />
            <mxPoint x="670" y="730" as="targetPoint" />
          </mxGeometry>
        </mxCell>
        <mxCell id="uH8B2-jDxrQE62gsc945-10" value="" style="endArrow=classic;html=1;rounded=0;exitX=0.5;exitY=1;exitDx=0;exitDy=0;entryX=0;entryY=0;entryDx=0;entryDy=0;" parent="WIyWlLk6GJQsqaUBKTNV-1" source="uH8B2-jDxrQE62gsc945-8" target="uH8B2-jDxrQE62gsc945-6" edge="1">
          <mxGeometry width="50" height="50" relative="1" as="geometry">
            <mxPoint x="620" y="780" as="sourcePoint" />
            <mxPoint x="140" y="1030" as="targetPoint" />
          </mxGeometry>
        </mxCell>
        <mxCell id="uH8B2-jDxrQE62gsc945-11" value="status quo revails" style="rounded=1;whiteSpace=wrap;html=1;fillColor=#f8cecc;strokeColor=#b85450;" parent="WIyWlLk6GJQsqaUBKTNV-1" vertex="1">
          <mxGeometry x="240" y="1220" width="120" height="60" as="geometry" />
        </mxCell>
        <mxCell id="uH8B2-jDxrQE62gsc945-12" value="" style="endArrow=classic;html=1;rounded=0;entryX=0.5;entryY=0;entryDx=0;entryDy=0;exitX=0.5;exitY=1;exitDx=0;exitDy=0;" parent="WIyWlLk6GJQsqaUBKTNV-1" source="uH8B2-jDxrQE62gsc945-4" target="uH8B2-jDxrQE62gsc945-11" edge="1">
          <mxGeometry width="50" height="50" relative="1" as="geometry">
            <mxPoint x="620" y="890" as="sourcePoint" />
            <mxPoint x="670" y="840" as="targetPoint" />
          </mxGeometry>
        </mxCell>
        <mxCell id="uH8B2-jDxrQE62gsc945-13" value="Constitutional Revolution in the Beghdilids" style="rounded=1;whiteSpace=wrap;html=1;fillColor=#f8cecc;strokeColor=#b85450;" parent="WIyWlLk6GJQsqaUBKTNV-1" vertex="1">
          <mxGeometry x="230" y="1970" width="120" height="60" as="geometry" />
        </mxCell>
        <mxCell id="uH8B2-jDxrQE62gsc945-14" value="" style="endArrow=classic;html=1;rounded=0;entryX=0.5;entryY=0;entryDx=0;entryDy=0;" parent="WIyWlLk6GJQsqaUBKTNV-1" target="uH8B2-jDxrQE62gsc945-13" edge="1">
          <mxGeometry width="50" height="50" relative="1" as="geometry">
            <mxPoint x="300" y="1280" as="sourcePoint" />
            <mxPoint x="670" y="910" as="targetPoint" />
          </mxGeometry>
        </mxCell>
        <mxCell id="uH8B2-jDxrQE62gsc945-15" value="Reconstruction of the countryside&lt;br&gt;(each decision taken will make area loyal, capital is exepetion)" style="rounded=1;whiteSpace=wrap;html=1;fillColor=#f8cecc;strokeColor=#b85450;" parent="WIyWlLk6GJQsqaUBKTNV-1" vertex="1">
          <mxGeometry x="785" y="1090" width="290" height="60" as="geometry" />
        </mxCell>
        <mxCell id="uH8B2-jDxrQE62gsc945-20" value="" style="endArrow=classic;html=1;rounded=0;entryX=0.5;entryY=0;entryDx=0;entryDy=0;exitX=0.5;exitY=1;exitDx=0;exitDy=0;" parent="WIyWlLk6GJQsqaUBKTNV-1" target="uH8B2-jDxrQE62gsc945-15" edge="1">
          <mxGeometry width="50" height="50" relative="1" as="geometry">
            <mxPoint x="930" y="1010" as="sourcePoint" />
            <mxPoint x="680" y="910" as="targetPoint" />
          </mxGeometry>
        </mxCell>
        <mxCell id="uH8B2-jDxrQE62gsc945-23" value="&lt;b&gt;Iranian Prosperity&lt;/b&gt;" style="rounded=1;whiteSpace=wrap;html=1;fillColor=#f8cecc;strokeColor=#b85450;" parent="WIyWlLk6GJQsqaUBKTNV-1" vertex="1">
          <mxGeometry x="750" y="1580" width="370" height="60" as="geometry" />
        </mxCell>
        <mxCell id="uH8B2-jDxrQE62gsc945-26" value="Irevan Khanate:&lt;br&gt;Anti-Zohrabid plotting" style="rounded=1;whiteSpace=wrap;html=1;fillColor=#fff2cc;strokeColor=#d6b656;" parent="WIyWlLk6GJQsqaUBKTNV-1" vertex="1">
          <mxGeometry x="440" y="950" width="120" height="60" as="geometry" />
        </mxCell>
        <mxCell id="uH8B2-jDxrQE62gsc945-27" value="" style="endArrow=classic;html=1;rounded=0;exitX=1;exitY=0.5;exitDx=0;exitDy=0;entryX=0.5;entryY=0;entryDx=0;entryDy=0;" parent="WIyWlLk6GJQsqaUBKTNV-1" source="VTuG99v95SFGHNX27neQ-55" target="uH8B2-jDxrQE62gsc945-26" edge="1">
          <mxGeometry width="50" height="50" relative="1" as="geometry">
            <mxPoint x="340" y="760" as="sourcePoint" />
            <mxPoint x="440" y="930" as="targetPoint" />
            <Array as="points" />
          </mxGeometry>
        </mxCell>
        <mxCell id="uH8B2-jDxrQE62gsc945-28" value="&lt;div&gt;garner support of Turks in Ajam&lt;/div&gt;&lt;div&gt;(can fail)&lt;/div&gt;" style="rounded=1;whiteSpace=wrap;html=1;fillColor=#f8cecc;strokeColor=#b85450;" parent="WIyWlLk6GJQsqaUBKTNV-1" vertex="1">
          <mxGeometry x="430" y="1090" width="80" height="60" as="geometry" />
        </mxCell>
        <mxCell id="uH8B2-jDxrQE62gsc945-29" value="agitate the Lurs&lt;br&gt;(can fail)" style="rounded=1;whiteSpace=wrap;html=1;fillColor=#f8cecc;strokeColor=#b85450;" parent="WIyWlLk6GJQsqaUBKTNV-1" vertex="1">
          <mxGeometry x="570" y="1090" width="50" height="60" as="geometry" />
        </mxCell>
        <mxCell id="uH8B2-jDxrQE62gsc945-30" value="" style="endArrow=classic;html=1;rounded=0;entryX=0.5;entryY=0;entryDx=0;entryDy=0;exitX=0.5;exitY=1;exitDx=0;exitDy=0;" parent="WIyWlLk6GJQsqaUBKTNV-1" source="uH8B2-jDxrQE62gsc945-26" target="uH8B2-jDxrQE62gsc945-28" edge="1">
          <mxGeometry width="50" height="50" relative="1" as="geometry">
            <mxPoint x="390" y="1070" as="sourcePoint" />
            <mxPoint x="440" y="1020" as="targetPoint" />
          </mxGeometry>
        </mxCell>
        <mxCell id="uH8B2-jDxrQE62gsc945-31" value="" style="endArrow=classic;html=1;rounded=0;entryX=0.5;entryY=0;entryDx=0;entryDy=0;exitX=0.75;exitY=1;exitDx=0;exitDy=0;" parent="WIyWlLk6GJQsqaUBKTNV-1" source="uH8B2-jDxrQE62gsc945-26" target="uH8B2-jDxrQE62gsc945-29" edge="1">
          <mxGeometry width="50" height="50" relative="1" as="geometry">
            <mxPoint x="390" y="1070" as="sourcePoint" />
            <mxPoint x="440" y="1020" as="targetPoint" />
          </mxGeometry>
        </mxCell>
        <mxCell id="uH8B2-jDxrQE62gsc945-32" value="Invest the new found wealth into Fars" style="rounded=1;whiteSpace=wrap;html=1;fillColor=#f8cecc;strokeColor=#b85450;" parent="WIyWlLk6GJQsqaUBKTNV-1" vertex="1">
          <mxGeometry x="1040" y="1210" width="75" height="60" as="geometry" />
        </mxCell>
        <mxCell id="uH8B2-jDxrQE62gsc945-35" value="" style="endArrow=classic;html=1;rounded=0;entryX=0.5;entryY=0;entryDx=0;entryDy=0;exitX=0.5;exitY=1;exitDx=0;exitDy=0;" parent="WIyWlLk6GJQsqaUBKTNV-1" source="uH8B2-jDxrQE62gsc945-15" target="uH8B2-jDxrQE62gsc945-32" edge="1">
          <mxGeometry width="50" height="50" relative="1" as="geometry">
            <mxPoint x="990" y="1090" as="sourcePoint" />
            <mxPoint x="1040" y="1040" as="targetPoint" />
          </mxGeometry>
        </mxCell>
        <mxCell id="uH8B2-jDxrQE62gsc945-36" value="Tighten our grip over the Lezgins" style="rounded=1;whiteSpace=wrap;html=1;fillColor=#f8cecc;strokeColor=#b85450;" parent="WIyWlLk6GJQsqaUBKTNV-1" vertex="1">
          <mxGeometry x="620" y="1090" width="60" height="60" as="geometry" />
        </mxCell>
        <mxCell id="uH8B2-jDxrQE62gsc945-37" value="" style="endArrow=classic;html=1;rounded=0;entryX=0.5;entryY=0;entryDx=0;entryDy=0;exitX=0.906;exitY=1.025;exitDx=0;exitDy=0;exitPerimeter=0;" parent="WIyWlLk6GJQsqaUBKTNV-1" source="uH8B2-jDxrQE62gsc945-26" target="uH8B2-jDxrQE62gsc945-36" edge="1">
          <mxGeometry width="50" height="50" relative="1" as="geometry">
            <mxPoint x="1040" y="1090" as="sourcePoint" />
            <mxPoint x="1090" y="1040" as="targetPoint" />
          </mxGeometry>
        </mxCell>
        <mxCell id="uH8B2-jDxrQE62gsc945-38" value="Rebuilt Kerman" style="rounded=1;whiteSpace=wrap;html=1;fillColor=#f8cecc;strokeColor=#b85450;" parent="WIyWlLk6GJQsqaUBKTNV-1" vertex="1">
          <mxGeometry x="820" y="1210" width="70" height="60" as="geometry" />
        </mxCell>
        <mxCell id="uH8B2-jDxrQE62gsc945-39" value="Increase control over Luristan" style="rounded=1;whiteSpace=wrap;html=1;fillColor=#f8cecc;strokeColor=#b85450;" parent="WIyWlLk6GJQsqaUBKTNV-1" vertex="1">
          <mxGeometry x="890" y="1210" width="70" height="60" as="geometry" />
        </mxCell>
        <mxCell id="uH8B2-jDxrQE62gsc945-40" value="" style="endArrow=classic;html=1;rounded=0;entryX=0.5;entryY=0;entryDx=0;entryDy=0;exitX=0.5;exitY=1;exitDx=0;exitDy=0;" parent="WIyWlLk6GJQsqaUBKTNV-1" source="uH8B2-jDxrQE62gsc945-15" target="uH8B2-jDxrQE62gsc945-38" edge="1">
          <mxGeometry width="50" height="50" relative="1" as="geometry">
            <mxPoint x="920" y="1150" as="sourcePoint" />
            <mxPoint x="1040" y="1150" as="targetPoint" />
          </mxGeometry>
        </mxCell>
        <mxCell id="uH8B2-jDxrQE62gsc945-42" value="Start the Uprising" style="rounded=1;whiteSpace=wrap;html=1;fillColor=#f8cecc;strokeColor=#b85450;" parent="WIyWlLk6GJQsqaUBKTNV-1" vertex="1">
          <mxGeometry x="510" y="1300" width="120" height="60" as="geometry" />
        </mxCell>
        <mxCell id="uH8B2-jDxrQE62gsc945-43" value="" style="endArrow=classic;html=1;rounded=0;entryX=0.5;entryY=0;entryDx=0;entryDy=0;exitX=0.615;exitY=1.022;exitDx=0;exitDy=0;exitPerimeter=0;" parent="WIyWlLk6GJQsqaUBKTNV-1" source="uH8B2-jDxrQE62gsc945-26" target="uH8B2-jDxrQE62gsc945-42" edge="1">
          <mxGeometry width="50" height="50" relative="1" as="geometry">
            <mxPoint x="990" y="1200" as="sourcePoint" />
            <mxPoint x="1040" y="1150" as="targetPoint" />
          </mxGeometry>
        </mxCell>
        <mxCell id="uH8B2-jDxrQE62gsc945-44" value="" style="endArrow=classic;html=1;rounded=0;entryX=0.5;entryY=0;entryDx=0;entryDy=0;exitX=0.5;exitY=1;exitDx=0;exitDy=0;" parent="WIyWlLk6GJQsqaUBKTNV-1" source="uH8B2-jDxrQE62gsc945-15" target="uH8B2-jDxrQE62gsc945-39" edge="1">
          <mxGeometry width="50" height="50" relative="1" as="geometry">
            <mxPoint x="990" y="1200" as="sourcePoint" />
            <mxPoint x="1040" y="1150" as="targetPoint" />
          </mxGeometry>
        </mxCell>
        <mxCell id="uH8B2-jDxrQE62gsc945-46" value="Offer privilages to the Arabs&lt;br&gt;(can fail)" style="rounded=1;whiteSpace=wrap;html=1;fillColor=#f8cecc;strokeColor=#b85450;" parent="WIyWlLk6GJQsqaUBKTNV-1" vertex="1">
          <mxGeometry x="680" y="1090" width="70" height="60" as="geometry" />
        </mxCell>
        <mxCell id="uH8B2-jDxrQE62gsc945-47" value="" style="endArrow=classic;html=1;rounded=0;entryX=0.5;entryY=0;entryDx=0;entryDy=0;exitX=1;exitY=1;exitDx=0;exitDy=0;" parent="WIyWlLk6GJQsqaUBKTNV-1" source="uH8B2-jDxrQE62gsc945-26" target="uH8B2-jDxrQE62gsc945-46" edge="1">
          <mxGeometry width="50" height="50" relative="1" as="geometry">
            <mxPoint x="1040" y="1200" as="sourcePoint" />
            <mxPoint x="1090" y="1150" as="targetPoint" />
          </mxGeometry>
        </mxCell>
        <mxCell id="uH8B2-jDxrQE62gsc945-48" value="Tap into the Oil Fields in Khuzestan" style="rounded=1;whiteSpace=wrap;html=1;fillColor=#f8cecc;strokeColor=#b85450;" parent="WIyWlLk6GJQsqaUBKTNV-1" vertex="1">
          <mxGeometry x="960" y="1210" width="80" height="60" as="geometry" />
        </mxCell>
        <mxCell id="uH8B2-jDxrQE62gsc945-49" value="Establish control over the Kurds" style="rounded=1;whiteSpace=wrap;html=1;fillColor=#f8cecc;strokeColor=#b85450;" parent="WIyWlLk6GJQsqaUBKTNV-1" vertex="1">
          <mxGeometry x="740" y="1210" width="80" height="60" as="geometry" />
        </mxCell>
        <mxCell id="uH8B2-jDxrQE62gsc945-50" value="" style="endArrow=classic;html=1;rounded=0;entryX=0.5;entryY=0;entryDx=0;entryDy=0;exitX=0.5;exitY=1;exitDx=0;exitDy=0;" parent="WIyWlLk6GJQsqaUBKTNV-1" source="uH8B2-jDxrQE62gsc945-15" target="uH8B2-jDxrQE62gsc945-49" edge="1">
          <mxGeometry width="50" height="50" relative="1" as="geometry">
            <mxPoint x="1210" y="1230" as="sourcePoint" />
            <mxPoint x="1260" y="1180" as="targetPoint" />
          </mxGeometry>
        </mxCell>
        <mxCell id="uH8B2-jDxrQE62gsc945-51" value="" style="endArrow=classic;html=1;rounded=0;entryX=0.384;entryY=-0.031;entryDx=0;entryDy=0;entryPerimeter=0;exitX=0.5;exitY=1;exitDx=0;exitDy=0;" parent="WIyWlLk6GJQsqaUBKTNV-1" source="uH8B2-jDxrQE62gsc945-15" target="uH8B2-jDxrQE62gsc945-48" edge="1">
          <mxGeometry width="50" height="50" relative="1" as="geometry">
            <mxPoint x="1210" y="1230" as="sourcePoint" />
            <mxPoint x="1260" y="1180" as="targetPoint" />
          </mxGeometry>
        </mxCell>
        <mxCell id="uH8B2-jDxrQE62gsc945-52" value="alienates Kurmanji Kurds, will support Irevan" style="rounded=1;whiteSpace=wrap;html=1;fillColor=#f8cecc;strokeColor=#b85450;" parent="WIyWlLk6GJQsqaUBKTNV-1" vertex="1">
          <mxGeometry x="600" y="1210" width="120" height="60" as="geometry" />
        </mxCell>
        <mxCell id="uH8B2-jDxrQE62gsc945-53" value="" style="endArrow=classic;html=1;rounded=0;exitX=0;exitY=0.5;exitDx=0;exitDy=0;" parent="WIyWlLk6GJQsqaUBKTNV-1" source="uH8B2-jDxrQE62gsc945-49" edge="1">
          <mxGeometry width="50" height="50" relative="1" as="geometry">
            <mxPoint x="1210" y="1230" as="sourcePoint" />
            <mxPoint x="720" y="1240" as="targetPoint" />
          </mxGeometry>
        </mxCell>
        <mxCell id="uH8B2-jDxrQE62gsc945-54" value="" style="endArrow=classic;html=1;rounded=0;entryX=0;entryY=0;entryDx=0;entryDy=0;exitX=0.635;exitY=1.027;exitDx=0;exitDy=0;exitPerimeter=0;" parent="WIyWlLk6GJQsqaUBKTNV-1" source="uH8B2-jDxrQE62gsc945-42" target="uH8B2-jDxrQE62gsc945-56" edge="1">
          <mxGeometry width="50" height="50" relative="1" as="geometry">
            <mxPoint x="1210" y="1230" as="sourcePoint" />
            <mxPoint x="1260" y="1180" as="targetPoint" />
          </mxGeometry>
        </mxCell>
        <mxCell id="uH8B2-jDxrQE62gsc945-56" value="Irevan loses" style="rounded=1;whiteSpace=wrap;html=1;fillColor=#f8cecc;strokeColor=#b85450;" parent="WIyWlLk6GJQsqaUBKTNV-1" vertex="1">
          <mxGeometry x="620" y="1410" width="120" height="60" as="geometry" />
        </mxCell>
        <mxCell id="uH8B2-jDxrQE62gsc945-57" value="" style="endArrow=classic;html=1;rounded=0;entryX=1;entryY=0;entryDx=0;entryDy=0;exitX=0.5;exitY=1;exitDx=0;exitDy=0;" parent="WIyWlLk6GJQsqaUBKTNV-1" source="uH8B2-jDxrQE62gsc945-52" target="uH8B2-jDxrQE62gsc945-42" edge="1">
          <mxGeometry width="50" height="50" relative="1" as="geometry">
            <mxPoint x="1070" y="1420" as="sourcePoint" />
            <mxPoint x="1120" y="1370" as="targetPoint" />
          </mxGeometry>
        </mxCell>
        <mxCell id="uH8B2-jDxrQE62gsc945-58" value="Irevan wins" style="rounded=1;whiteSpace=wrap;html=1;fillColor=#f8cecc;strokeColor=#b85450;" parent="WIyWlLk6GJQsqaUBKTNV-1" vertex="1">
          <mxGeometry x="470" y="1430" width="120" height="60" as="geometry" />
        </mxCell>
        <mxCell id="uH8B2-jDxrQE62gsc945-59" value="" style="endArrow=classic;html=1;rounded=0;entryX=0.5;entryY=0;entryDx=0;entryDy=0;exitX=1;exitY=0.5;exitDx=0;exitDy=0;" parent="WIyWlLk6GJQsqaUBKTNV-1" source="uH8B2-jDxrQE62gsc945-67" target="uH8B2-jDxrQE62gsc945-23" edge="1">
          <mxGeometry width="50" height="50" relative="1" as="geometry">
            <mxPoint x="1070" y="1420" as="sourcePoint" />
            <mxPoint x="1120" y="1370" as="targetPoint" />
            <Array as="points" />
          </mxGeometry>
        </mxCell>
        <mxCell id="uH8B2-jDxrQE62gsc945-60" value="" style="endArrow=classic;html=1;rounded=0;exitX=0.5;exitY=1;exitDx=0;exitDy=0;entryX=0.5;entryY=0;entryDx=0;entryDy=0;" parent="WIyWlLk6GJQsqaUBKTNV-1" source="uH8B2-jDxrQE62gsc945-38" target="uH8B2-jDxrQE62gsc945-23" edge="1">
          <mxGeometry width="50" height="50" relative="1" as="geometry">
            <mxPoint x="1070" y="1420" as="sourcePoint" />
            <mxPoint x="920" y="1550" as="targetPoint" />
          </mxGeometry>
        </mxCell>
        <mxCell id="uH8B2-jDxrQE62gsc945-61" value="" style="endArrow=classic;html=1;rounded=0;entryX=0.5;entryY=0;entryDx=0;entryDy=0;exitX=0.5;exitY=1;exitDx=0;exitDy=0;" parent="WIyWlLk6GJQsqaUBKTNV-1" source="uH8B2-jDxrQE62gsc945-39" target="uH8B2-jDxrQE62gsc945-23" edge="1">
          <mxGeometry width="50" height="50" relative="1" as="geometry">
            <mxPoint x="1070" y="1420" as="sourcePoint" />
            <mxPoint x="1120" y="1370" as="targetPoint" />
          </mxGeometry>
        </mxCell>
        <mxCell id="uH8B2-jDxrQE62gsc945-62" value="" style="endArrow=classic;html=1;rounded=0;exitX=0.5;exitY=1;exitDx=0;exitDy=0;entryX=0.5;entryY=0;entryDx=0;entryDy=0;" parent="WIyWlLk6GJQsqaUBKTNV-1" source="uH8B2-jDxrQE62gsc945-48" target="uH8B2-jDxrQE62gsc945-23" edge="1">
          <mxGeometry width="50" height="50" relative="1" as="geometry">
            <mxPoint x="1070" y="1420" as="sourcePoint" />
            <mxPoint x="930" y="1550" as="targetPoint" />
          </mxGeometry>
        </mxCell>
        <mxCell id="uH8B2-jDxrQE62gsc945-63" value="" style="endArrow=classic;html=1;rounded=0;exitX=0.5;exitY=1;exitDx=0;exitDy=0;entryX=0.5;entryY=0;entryDx=0;entryDy=0;" parent="WIyWlLk6GJQsqaUBKTNV-1" source="uH8B2-jDxrQE62gsc945-32" target="uH8B2-jDxrQE62gsc945-23" edge="1">
          <mxGeometry width="50" height="50" relative="1" as="geometry">
            <mxPoint x="1070" y="1420" as="sourcePoint" />
            <mxPoint x="930" y="1550" as="targetPoint" />
          </mxGeometry>
        </mxCell>
        <mxCell id="uH8B2-jDxrQE62gsc945-64" value="" style="endArrow=classic;html=1;rounded=0;entryX=0.5;entryY=0;entryDx=0;entryDy=0;exitX=0.417;exitY=1;exitDx=0;exitDy=0;exitPerimeter=0;" parent="WIyWlLk6GJQsqaUBKTNV-1" source="uH8B2-jDxrQE62gsc945-42" target="uH8B2-jDxrQE62gsc945-58" edge="1">
          <mxGeometry width="50" height="50" relative="1" as="geometry">
            <mxPoint x="920" y="1380" as="sourcePoint" />
            <mxPoint x="970" y="1330" as="targetPoint" />
          </mxGeometry>
        </mxCell>
        <mxCell id="uH8B2-jDxrQE62gsc945-65" value="Destruction and annexetion of the Zohrabids&lt;br&gt;(tag changes to TKO, rename to Irevan&#39;s dynasty, unlocks Iranian decisions)" style="rounded=1;whiteSpace=wrap;html=1;fillColor=#f8cecc;strokeColor=#b85450;" parent="WIyWlLk6GJQsqaUBKTNV-1" vertex="1">
          <mxGeometry x="450" y="1550" width="160" height="90" as="geometry" />
        </mxCell>
        <mxCell id="uH8B2-jDxrQE62gsc945-66" value="" style="endArrow=classic;html=1;rounded=0;entryX=0.5;entryY=0;entryDx=0;entryDy=0;exitX=0.5;exitY=1;exitDx=0;exitDy=0;" parent="WIyWlLk6GJQsqaUBKTNV-1" source="uH8B2-jDxrQE62gsc945-58" target="uH8B2-jDxrQE62gsc945-65" edge="1">
          <mxGeometry width="50" height="50" relative="1" as="geometry">
            <mxPoint x="540" y="1490" as="sourcePoint" />
            <mxPoint x="820" y="1400" as="targetPoint" />
          </mxGeometry>
        </mxCell>
        <mxCell id="uH8B2-jDxrQE62gsc945-67" value="Annexetion of Irevan" style="rounded=1;whiteSpace=wrap;html=1;fillColor=#f8cecc;strokeColor=#b85450;" parent="WIyWlLk6GJQsqaUBKTNV-1" vertex="1">
          <mxGeometry x="620" y="1490" width="120" height="60" as="geometry" />
        </mxCell>
        <mxCell id="uH8B2-jDxrQE62gsc945-68" value="" style="endArrow=classic;html=1;rounded=0;entryX=0.5;entryY=0;entryDx=0;entryDy=0;exitX=0.5;exitY=1;exitDx=0;exitDy=0;" parent="WIyWlLk6GJQsqaUBKTNV-1" source="uH8B2-jDxrQE62gsc945-56" target="uH8B2-jDxrQE62gsc945-67" edge="1">
          <mxGeometry width="50" height="50" relative="1" as="geometry">
            <mxPoint x="740" y="1470" as="sourcePoint" />
            <mxPoint x="790" y="1420" as="targetPoint" />
          </mxGeometry>
        </mxCell>
        <mxCell id="uH8B2-jDxrQE62gsc945-69" value="" style="endArrow=classic;html=1;rounded=0;entryX=0.5;entryY=0;entryDx=0;entryDy=0;exitX=0.5;exitY=1;exitDx=0;exitDy=0;" parent="WIyWlLk6GJQsqaUBKTNV-1" source="uH8B2-jDxrQE62gsc945-6" target="uH8B2-jDxrQE62gsc945-13" edge="1">
          <mxGeometry width="50" height="50" relative="1" as="geometry">
            <mxPoint x="770" y="1470" as="sourcePoint" />
            <mxPoint x="820" y="1420" as="targetPoint" />
          </mxGeometry>
        </mxCell>
        <mxCell id="uH8B2-jDxrQE62gsc945-70" value="&lt;b&gt;Red Khuzestan&lt;/b&gt;&lt;br&gt;(requires social unrest/high WE and peacetime; can happen after 1870)" style="rounded=1;whiteSpace=wrap;html=1;fillColor=#f8cecc;strokeColor=#b85450;" parent="WIyWlLk6GJQsqaUBKTNV-1" vertex="1">
          <mxGeometry x="660" y="1910" width="300" height="60" as="geometry" />
        </mxCell>
        <mxCell id="uH8B2-jDxrQE62gsc945-72" value="" style="endArrow=classic;html=1;rounded=0;entryX=1;entryY=0.5;entryDx=0;entryDy=0;exitX=0;exitY=0.5;exitDx=0;exitDy=0;" parent="WIyWlLk6GJQsqaUBKTNV-1" source="uH8B2-jDxrQE62gsc945-70" target="uH8B2-jDxrQE62gsc945-13" edge="1">
          <mxGeometry width="50" height="50" relative="1" as="geometry">
            <mxPoint x="680" y="1780" as="sourcePoint" />
            <mxPoint x="980" y="1800" as="targetPoint" />
          </mxGeometry>
        </mxCell>
        <mxCell id="uH8B2-jDxrQE62gsc945-73" value="Uprising crushed" style="rounded=1;whiteSpace=wrap;html=1;fillColor=#f8cecc;strokeColor=#b85450;" parent="WIyWlLk6GJQsqaUBKTNV-1" vertex="1">
          <mxGeometry x="660" y="2050" width="120" height="60" as="geometry" />
        </mxCell>
        <mxCell id="uH8B2-jDxrQE62gsc945-74" value="Uprising succeeds" style="rounded=1;whiteSpace=wrap;html=1;fillColor=#f8cecc;strokeColor=#b85450;" parent="WIyWlLk6GJQsqaUBKTNV-1" vertex="1">
          <mxGeometry x="840" y="2050" width="120" height="60" as="geometry" />
        </mxCell>
        <mxCell id="uH8B2-jDxrQE62gsc945-75" value="" style="endArrow=classic;html=1;rounded=0;entryX=0.5;entryY=0;entryDx=0;entryDy=0;exitX=0.5;exitY=1;exitDx=0;exitDy=0;" parent="WIyWlLk6GJQsqaUBKTNV-1" source="uH8B2-jDxrQE62gsc945-70" target="uH8B2-jDxrQE62gsc945-74" edge="1">
          <mxGeometry width="50" height="50" relative="1" as="geometry">
            <mxPoint x="930" y="2090" as="sourcePoint" />
            <mxPoint x="980" y="2040" as="targetPoint" />
          </mxGeometry>
        </mxCell>
        <mxCell id="uH8B2-jDxrQE62gsc945-76" value="" style="endArrow=classic;html=1;rounded=0;entryX=0.5;entryY=0;entryDx=0;entryDy=0;exitX=0.5;exitY=1;exitDx=0;exitDy=0;" parent="WIyWlLk6GJQsqaUBKTNV-1" source="uH8B2-jDxrQE62gsc945-70" target="uH8B2-jDxrQE62gsc945-73" edge="1">
          <mxGeometry width="50" height="50" relative="1" as="geometry">
            <mxPoint x="930" y="2090" as="sourcePoint" />
            <mxPoint x="980" y="2040" as="targetPoint" />
          </mxGeometry>
        </mxCell>
        <mxCell id="uH8B2-jDxrQE62gsc945-77" value="Iranian occuption of Eastern Anatolia" style="rounded=1;whiteSpace=wrap;html=1;fillColor=#f8cecc;strokeColor=#b85450;" parent="WIyWlLk6GJQsqaUBKTNV-1" vertex="1">
          <mxGeometry x="460" y="2110" width="120" height="60" as="geometry" />
        </mxCell>
        <mxCell id="uH8B2-jDxrQE62gsc945-78" value="" style="endArrow=classic;html=1;rounded=0;entryX=1;entryY=0;entryDx=0;entryDy=0;exitX=0;exitY=1;exitDx=0;exitDy=0;" parent="WIyWlLk6GJQsqaUBKTNV-1" source="uH8B2-jDxrQE62gsc945-73" target="uH8B2-jDxrQE62gsc945-77" edge="1">
          <mxGeometry width="50" height="50" relative="1" as="geometry">
            <mxPoint x="930" y="2130" as="sourcePoint" />
            <mxPoint x="980" y="2080" as="targetPoint" />
          </mxGeometry>
        </mxCell>
        <mxCell id="uH8B2-jDxrQE62gsc945-79" value="" style="endArrow=classic;html=1;rounded=0;entryX=0;entryY=0;entryDx=0;entryDy=0;exitX=1;exitY=1;exitDx=0;exitDy=0;" parent="WIyWlLk6GJQsqaUBKTNV-1" source="uH8B2-jDxrQE62gsc945-13" target="uH8B2-jDxrQE62gsc945-77" edge="1">
          <mxGeometry width="50" height="50" relative="1" as="geometry">
            <mxPoint x="930" y="2130" as="sourcePoint" />
            <mxPoint x="980" y="2080" as="targetPoint" />
          </mxGeometry>
        </mxCell>
        <mxCell id="uH8B2-jDxrQE62gsc945-80" value="&lt;b&gt;The Death of Farhad Khan&lt;br&gt;(~1870)&lt;/b&gt;" style="rounded=1;whiteSpace=wrap;html=1;fillColor=#f8cecc;strokeColor=#b85450;" parent="WIyWlLk6GJQsqaUBKTNV-1" vertex="1">
          <mxGeometry x="805" y="1670" width="120" height="60" as="geometry" />
        </mxCell>
        <mxCell id="uH8B2-jDxrQE62gsc945-81" value="&amp;nbsp;Transoxiana" style="rounded=1;whiteSpace=wrap;html=1;fillColor=#f8cecc;strokeColor=#b85450;" parent="WIyWlLk6GJQsqaUBKTNV-1" vertex="1">
          <mxGeometry x="1340" y="250" width="120" height="60" as="geometry" />
        </mxCell>
        <mxCell id="uH8B2-jDxrQE62gsc945-82" value="" style="endArrow=classic;html=1;rounded=0;entryX=0.5;entryY=0;entryDx=0;entryDy=0;exitX=1;exitY=0.5;exitDx=0;exitDy=0;" parent="WIyWlLk6GJQsqaUBKTNV-1" source="VTuG99v95SFGHNX27neQ-0" target="uH8B2-jDxrQE62gsc945-81" edge="1">
          <mxGeometry width="50" height="50" relative="1" as="geometry">
            <mxPoint x="1300" y="280" as="sourcePoint" />
            <mxPoint x="1350" y="230" as="targetPoint" />
          </mxGeometry>
        </mxCell>
        <mxCell id="uH8B2-jDxrQE62gsc945-84" value="Invasion of Tashkand during Civil War" style="rounded=1;whiteSpace=wrap;html=1;fillColor=#f8cecc;strokeColor=#b85450;" parent="WIyWlLk6GJQsqaUBKTNV-1" vertex="1">
          <mxGeometry x="1270" y="345" width="120" height="60" as="geometry" />
        </mxCell>
        <mxCell id="uH8B2-jDxrQE62gsc945-85" value="" style="endArrow=classic;html=1;rounded=0;entryX=0.5;entryY=0;entryDx=0;entryDy=0;exitX=0.5;exitY=1;exitDx=0;exitDy=0;" parent="WIyWlLk6GJQsqaUBKTNV-1" source="uH8B2-jDxrQE62gsc945-81" target="uH8B2-jDxrQE62gsc945-84" edge="1">
          <mxGeometry width="50" height="50" relative="1" as="geometry">
            <mxPoint x="1360" y="310" as="sourcePoint" />
            <mxPoint x="1410" y="260" as="targetPoint" />
          </mxGeometry>
        </mxCell>
        <mxCell id="uH8B2-jDxrQE62gsc945-86" value="Breakaway of Qonduz" style="rounded=1;whiteSpace=wrap;html=1;fillColor=#f8cecc;strokeColor=#b85450;" parent="WIyWlLk6GJQsqaUBKTNV-1" vertex="1">
          <mxGeometry x="1410" y="345" width="120" height="60" as="geometry" />
        </mxCell>
        <mxCell id="uH8B2-jDxrQE62gsc945-87" value="Breakaway of Darvaz" style="rounded=1;whiteSpace=wrap;html=1;fillColor=#f8cecc;strokeColor=#b85450;" parent="WIyWlLk6GJQsqaUBKTNV-1" vertex="1">
          <mxGeometry x="1530" y="345" width="120" height="60" as="geometry" />
        </mxCell>
        <mxCell id="uH8B2-jDxrQE62gsc945-88" value="Khatlon in disary" style="rounded=1;whiteSpace=wrap;html=1;fillColor=#f8cecc;strokeColor=#b85450;" parent="WIyWlLk6GJQsqaUBKTNV-1" vertex="1">
          <mxGeometry x="1650" y="345" width="120" height="60" as="geometry" />
        </mxCell>
        <mxCell id="uH8B2-jDxrQE62gsc945-89" value="" style="endArrow=classic;html=1;rounded=0;entryX=0.5;entryY=0;entryDx=0;entryDy=0;exitX=0.612;exitY=0.991;exitDx=0;exitDy=0;exitPerimeter=0;" parent="WIyWlLk6GJQsqaUBKTNV-1" source="uH8B2-jDxrQE62gsc945-81" target="uH8B2-jDxrQE62gsc945-86" edge="1">
          <mxGeometry width="50" height="50" relative="1" as="geometry">
            <mxPoint x="1380" y="430" as="sourcePoint" />
            <mxPoint x="1430" y="380" as="targetPoint" />
          </mxGeometry>
        </mxCell>
        <mxCell id="uH8B2-jDxrQE62gsc945-90" value="" style="endArrow=classic;html=1;rounded=0;entryX=0.5;entryY=0;entryDx=0;entryDy=0;exitX=0.75;exitY=1;exitDx=0;exitDy=0;" parent="WIyWlLk6GJQsqaUBKTNV-1" source="uH8B2-jDxrQE62gsc945-81" target="uH8B2-jDxrQE62gsc945-87" edge="1">
          <mxGeometry width="50" height="50" relative="1" as="geometry">
            <mxPoint x="1380" y="430" as="sourcePoint" />
            <mxPoint x="1430" y="380" as="targetPoint" />
          </mxGeometry>
        </mxCell>
        <mxCell id="uH8B2-jDxrQE62gsc945-91" value="" style="endArrow=classic;html=1;rounded=0;entryX=0.5;entryY=0;entryDx=0;entryDy=0;exitX=1;exitY=1;exitDx=0;exitDy=0;" parent="WIyWlLk6GJQsqaUBKTNV-1" source="uH8B2-jDxrQE62gsc945-81" target="uH8B2-jDxrQE62gsc945-88" edge="1">
          <mxGeometry width="50" height="50" relative="1" as="geometry">
            <mxPoint x="1380" y="430" as="sourcePoint" />
            <mxPoint x="1430" y="380" as="targetPoint" />
          </mxGeometry>
        </mxCell>
        <mxCell id="uH8B2-jDxrQE62gsc945-92" value="cores needed for further progress" style="rounded=1;whiteSpace=wrap;html=1;fillColor=#f8cecc;strokeColor=#b85450;" parent="WIyWlLk6GJQsqaUBKTNV-1" vertex="1">
          <mxGeometry x="1270" y="460" width="120" height="60" as="geometry" />
        </mxCell>
        <mxCell id="uH8B2-jDxrQE62gsc945-93" value="Reclamation of Darvaz" style="rounded=1;whiteSpace=wrap;html=1;fillColor=#f8cecc;strokeColor=#b85450;" parent="WIyWlLk6GJQsqaUBKTNV-1" vertex="1">
          <mxGeometry x="1530" y="525" width="120" height="60" as="geometry" />
        </mxCell>
        <mxCell id="uH8B2-jDxrQE62gsc945-94" value="" style="endArrow=classic;html=1;rounded=0;entryX=0.5;entryY=0;entryDx=0;entryDy=0;exitX=0.5;exitY=1;exitDx=0;exitDy=0;" parent="WIyWlLk6GJQsqaUBKTNV-1" source="uH8B2-jDxrQE62gsc945-84" target="uH8B2-jDxrQE62gsc945-92" edge="1">
          <mxGeometry width="50" height="50" relative="1" as="geometry">
            <mxPoint x="1630" y="540" as="sourcePoint" />
            <mxPoint x="1680" y="490" as="targetPoint" />
          </mxGeometry>
        </mxCell>
        <mxCell id="uH8B2-jDxrQE62gsc945-95" value="Reclamation of Qonduz" style="rounded=1;whiteSpace=wrap;html=1;fillColor=#f8cecc;strokeColor=#b85450;" parent="WIyWlLk6GJQsqaUBKTNV-1" vertex="1">
          <mxGeometry x="1410" y="525" width="120" height="60" as="geometry" />
        </mxCell>
        <mxCell id="uH8B2-jDxrQE62gsc945-96" value="Reclamation of Qonduz" style="rounded=1;whiteSpace=wrap;html=1;fillColor=#f8cecc;strokeColor=#b85450;" parent="WIyWlLk6GJQsqaUBKTNV-1" vertex="1">
          <mxGeometry x="1650" y="525" width="120" height="60" as="geometry" />
        </mxCell>
        <mxCell id="uH8B2-jDxrQE62gsc945-97" value="" style="endArrow=classic;html=1;rounded=0;entryX=0.5;entryY=0;entryDx=0;entryDy=0;exitX=0.5;exitY=1;exitDx=0;exitDy=0;" parent="WIyWlLk6GJQsqaUBKTNV-1" source="uH8B2-jDxrQE62gsc945-86" target="uH8B2-jDxrQE62gsc945-95" edge="1">
          <mxGeometry width="50" height="50" relative="1" as="geometry">
            <mxPoint x="1510" y="535" as="sourcePoint" />
            <mxPoint x="1560" y="485" as="targetPoint" />
          </mxGeometry>
        </mxCell>
        <mxCell id="uH8B2-jDxrQE62gsc945-98" value="" style="endArrow=classic;html=1;rounded=0;entryX=0.5;entryY=0;entryDx=0;entryDy=0;exitX=0.5;exitY=1;exitDx=0;exitDy=0;" parent="WIyWlLk6GJQsqaUBKTNV-1" source="uH8B2-jDxrQE62gsc945-87" target="uH8B2-jDxrQE62gsc945-93" edge="1">
          <mxGeometry width="50" height="50" relative="1" as="geometry">
            <mxPoint x="1510" y="535" as="sourcePoint" />
            <mxPoint x="1560" y="485" as="targetPoint" />
          </mxGeometry>
        </mxCell>
        <mxCell id="uH8B2-jDxrQE62gsc945-99" value="" style="endArrow=classic;html=1;rounded=0;entryX=0.5;entryY=0;entryDx=0;entryDy=0;exitX=0.5;exitY=1;exitDx=0;exitDy=0;" parent="WIyWlLk6GJQsqaUBKTNV-1" source="uH8B2-jDxrQE62gsc945-88" target="uH8B2-jDxrQE62gsc945-96" edge="1">
          <mxGeometry width="50" height="50" relative="1" as="geometry">
            <mxPoint x="1510" y="535" as="sourcePoint" />
            <mxPoint x="1560" y="485" as="targetPoint" />
          </mxGeometry>
        </mxCell>
        <mxCell id="uH8B2-jDxrQE62gsc945-100" value="" style="endArrow=classic;html=1;rounded=0;entryX=0.5;entryY=0;entryDx=0;entryDy=0;exitX=1;exitY=0.5;exitDx=0;exitDy=0;" parent="WIyWlLk6GJQsqaUBKTNV-1" source="uH8B2-jDxrQE62gsc945-92" target="uH8B2-jDxrQE62gsc945-95" edge="1">
          <mxGeometry width="50" height="50" relative="1" as="geometry">
            <mxPoint x="1570" y="540" as="sourcePoint" />
            <mxPoint x="1620" y="490" as="targetPoint" />
          </mxGeometry>
        </mxCell>
        <mxCell id="uH8B2-jDxrQE62gsc945-101" value="" style="endArrow=classic;html=1;rounded=0;entryX=0.5;entryY=0;entryDx=0;entryDy=0;exitX=1;exitY=0.5;exitDx=0;exitDy=0;" parent="WIyWlLk6GJQsqaUBKTNV-1" source="uH8B2-jDxrQE62gsc945-92" target="uH8B2-jDxrQE62gsc945-93" edge="1">
          <mxGeometry width="50" height="50" relative="1" as="geometry">
            <mxPoint x="1570" y="540" as="sourcePoint" />
            <mxPoint x="1620" y="490" as="targetPoint" />
          </mxGeometry>
        </mxCell>
        <mxCell id="uH8B2-jDxrQE62gsc945-102" value="" style="endArrow=classic;html=1;rounded=0;entryX=0.5;entryY=0;entryDx=0;entryDy=0;exitX=1;exitY=0.5;exitDx=0;exitDy=0;" parent="WIyWlLk6GJQsqaUBKTNV-1" source="uH8B2-jDxrQE62gsc945-92" target="uH8B2-jDxrQE62gsc945-96" edge="1">
          <mxGeometry width="50" height="50" relative="1" as="geometry">
            <mxPoint x="1570" y="540" as="sourcePoint" />
            <mxPoint x="1620" y="490" as="targetPoint" />
          </mxGeometry>
        </mxCell>
        <mxCell id="uH8B2-jDxrQE62gsc945-103" value="Reconsiliation with the Beghdilids" style="rounded=1;whiteSpace=wrap;html=1;fillColor=#f8cecc;strokeColor=#b85450;" parent="WIyWlLk6GJQsqaUBKTNV-1" vertex="1">
          <mxGeometry x="670" y="1670" width="120" height="60" as="geometry" />
        </mxCell>
        <mxCell id="uH8B2-jDxrQE62gsc945-106" value="Reconstruction of the Timurid Empire&lt;br&gt;(owns Herat, grants cores for all of Khorasan)" style="rounded=1;whiteSpace=wrap;html=1;fillColor=#f8cecc;strokeColor=#b85450;" parent="WIyWlLk6GJQsqaUBKTNV-1" vertex="1">
          <mxGeometry x="1330" y="630" width="140" height="60" as="geometry" />
        </mxCell>
        <mxCell id="uH8B2-jDxrQE62gsc945-107" value="" style="endArrow=classic;html=1;rounded=0;entryX=0.5;entryY=0;entryDx=0;entryDy=0;exitX=0.5;exitY=1;exitDx=0;exitDy=0;" parent="WIyWlLk6GJQsqaUBKTNV-1" source="uH8B2-jDxrQE62gsc945-81" target="uH8B2-jDxrQE62gsc945-106" edge="1">
          <mxGeometry width="50" height="50" relative="1" as="geometry">
            <mxPoint x="1230" y="660" as="sourcePoint" />
            <mxPoint x="1280" y="610" as="targetPoint" />
          </mxGeometry>
        </mxCell>
        <mxCell id="uH8B2-jDxrQE62gsc945-109" value="Cores for lost regions" style="rounded=1;whiteSpace=wrap;html=1;fillColor=#f8cecc;strokeColor=#b85450;" parent="WIyWlLk6GJQsqaUBKTNV-1" vertex="1">
          <mxGeometry x="1345" y="730" width="110" height="60" as="geometry" />
        </mxCell>
        <mxCell id="uH8B2-jDxrQE62gsc945-112" value="" style="endArrow=classic;html=1;rounded=0;entryX=0.5;entryY=0;entryDx=0;entryDy=0;exitX=0.5;exitY=1;exitDx=0;exitDy=0;" parent="WIyWlLk6GJQsqaUBKTNV-1" source="uH8B2-jDxrQE62gsc945-106" target="uH8B2-jDxrQE62gsc945-109" edge="1">
          <mxGeometry width="50" height="50" relative="1" as="geometry">
            <mxPoint x="1230" y="720" as="sourcePoint" />
            <mxPoint x="1280" y="670" as="targetPoint" />
          </mxGeometry>
        </mxCell>
        <mxCell id="uH8B2-jDxrQE62gsc945-113" value="Rise of the Jalwanids" style="rounded=1;whiteSpace=wrap;html=1;fillColor=#f8cecc;strokeColor=#b85450;" parent="WIyWlLk6GJQsqaUBKTNV-1" vertex="1">
          <mxGeometry x="1960" y="250" width="120" height="60" as="geometry" />
        </mxCell>
        <mxCell id="uH8B2-jDxrQE62gsc945-114" value="Ressource decisions" style="rounded=1;whiteSpace=wrap;html=1;fillColor=#f8cecc;strokeColor=#b85450;" parent="WIyWlLk6GJQsqaUBKTNV-1" vertex="1">
          <mxGeometry x="1500" y="840" width="120" height="60" as="geometry" />
        </mxCell>
        <mxCell id="uH8B2-jDxrQE62gsc945-116" value="&lt;div&gt;Revoke Zerafshan autonomy&lt;/div&gt;" style="rounded=1;whiteSpace=wrap;html=1;fillColor=#d5e8d4;strokeColor=#82b366;" parent="WIyWlLk6GJQsqaUBKTNV-1" vertex="1">
          <mxGeometry x="1560" y="730" width="120" height="60" as="geometry" />
        </mxCell>
        <mxCell id="uH8B2-jDxrQE62gsc945-117" value="&lt;b&gt;&lt;i&gt;Utilize TGC region trick (see pinned messages in dev-chat)&lt;/i&gt;&lt;/b&gt;" style="text;html=1;strokeColor=none;fillColor=none;align=center;verticalAlign=middle;whiteSpace=wrap;rounded=0;" parent="WIyWlLk6GJQsqaUBKTNV-1" vertex="1">
          <mxGeometry x="670" y="1010" width="150" height="80" as="geometry" />
        </mxCell>
        <mxCell id="uH8B2-jDxrQE62gsc945-118" value="&lt;b&gt;&lt;u&gt;Iranian Flavour&lt;/u&gt;&lt;/b&gt;" style="rounded=1;whiteSpace=wrap;html=1;fillColor=#dae8fc;strokeColor=#6c8ebf;" parent="WIyWlLk6GJQsqaUBKTNV-1" vertex="1">
          <mxGeometry x="820" y="1830" width="260" height="60" as="geometry" />
        </mxCell>
        <mxCell id="uH8B2-jDxrQE62gsc945-120" value="more ressource decsions" style="rounded=1;whiteSpace=wrap;html=1;fillColor=#f8cecc;strokeColor=#b85450;" parent="WIyWlLk6GJQsqaUBKTNV-1" vertex="1">
          <mxGeometry x="990" y="1910" width="140" height="60" as="geometry" />
        </mxCell>
        <mxCell id="uH8B2-jDxrQE62gsc945-121" value="&lt;b&gt;Socialist Iran&lt;/b&gt;" style="rounded=1;whiteSpace=wrap;html=1;fillColor=#f8cecc;strokeColor=#b85450;" parent="WIyWlLk6GJQsqaUBKTNV-1" vertex="1">
          <mxGeometry x="840" y="2160" width="120" height="60" as="geometry" />
        </mxCell>
        <mxCell id="uH8B2-jDxrQE62gsc945-122" value="" style="endArrow=none;dashed=1;html=1;dashPattern=1 3;strokeWidth=2;rounded=0;entryX=1;entryY=0.5;entryDx=0;entryDy=0;exitX=1;exitY=0.5;exitDx=0;exitDy=0;" parent="WIyWlLk6GJQsqaUBKTNV-1" source="uH8B2-jDxrQE62gsc945-32" target="uH8B2-jDxrQE62gsc945-118" edge="1">
          <mxGeometry width="50" height="50" relative="1" as="geometry">
            <mxPoint x="1140" y="1240" as="sourcePoint" />
            <mxPoint x="880" y="1700" as="targetPoint" />
            <Array as="points">
              <mxPoint x="1260" y="1240" />
              <mxPoint x="1260" y="1860" />
            </Array>
          </mxGeometry>
        </mxCell>
        <mxCell id="uH8B2-jDxrQE62gsc945-123" value="" style="endArrow=classic;html=1;rounded=0;entryX=0.5;entryY=0;entryDx=0;entryDy=0;exitX=0.5;exitY=1;exitDx=0;exitDy=0;" parent="WIyWlLk6GJQsqaUBKTNV-1" source="uH8B2-jDxrQE62gsc945-74" target="uH8B2-jDxrQE62gsc945-121" edge="1">
          <mxGeometry width="50" height="50" relative="1" as="geometry">
            <mxPoint x="1200" y="1990" as="sourcePoint" />
            <mxPoint x="1250" y="1940" as="targetPoint" />
          </mxGeometry>
        </mxCell>
        <mxCell id="uH8B2-jDxrQE62gsc945-124" value="Eastern Expansion&lt;br&gt;(Transoxiana, Afghanistan)" style="rounded=1;whiteSpace=wrap;html=1;fillColor=#f8cecc;strokeColor=#b85450;" parent="WIyWlLk6GJQsqaUBKTNV-1" vertex="1">
          <mxGeometry x="1150" y="1940" width="120" height="60" as="geometry" />
        </mxCell>
        <mxCell id="uH8B2-jDxrQE62gsc945-126" value="&lt;b&gt;Treaty of Darband&lt;/b&gt;&lt;br&gt;(convention over the Steppes)" style="rounded=1;whiteSpace=wrap;html=1;fillColor=#f8cecc;strokeColor=#b85450;" parent="WIyWlLk6GJQsqaUBKTNV-1" vertex="1">
          <mxGeometry x="970" y="2000" width="120" height="60" as="geometry" />
        </mxCell>
        <mxCell id="uH8B2-jDxrQE62gsc945-127" value="Language reform" style="rounded=1;whiteSpace=wrap;html=1;fillColor=#f8cecc;strokeColor=#b85450;" parent="WIyWlLk6GJQsqaUBKTNV-1" vertex="1">
          <mxGeometry x="1100" y="2020" width="120" height="60" as="geometry" />
        </mxCell>
        <mxCell id="uH8B2-jDxrQE62gsc945-128" value="Invasion of the Sikh&#39;s" style="rounded=1;whiteSpace=wrap;html=1;fillColor=#f8cecc;strokeColor=#b85450;" parent="WIyWlLk6GJQsqaUBKTNV-1" vertex="1">
          <mxGeometry x="1828" y="345" width="120" height="60" as="geometry" />
        </mxCell>
        <mxCell id="uH8B2-jDxrQE62gsc945-129" value="" style="endArrow=classic;html=1;rounded=0;entryX=0.5;entryY=0;entryDx=0;entryDy=0;exitX=0;exitY=1;exitDx=0;exitDy=0;" parent="WIyWlLk6GJQsqaUBKTNV-1" source="uH8B2-jDxrQE62gsc945-113" target="uH8B2-jDxrQE62gsc945-128" edge="1">
          <mxGeometry width="50" height="50" relative="1" as="geometry">
            <mxPoint x="1840" y="410" as="sourcePoint" />
            <mxPoint x="1890" y="360" as="targetPoint" />
          </mxGeometry>
        </mxCell>
        <mxCell id="uH8B2-jDxrQE62gsc945-130" value="Demand the subjugation of the Pashtuns" style="rounded=1;whiteSpace=wrap;html=1;fillColor=#f8cecc;strokeColor=#b85450;" parent="WIyWlLk6GJQsqaUBKTNV-1" vertex="1">
          <mxGeometry x="1960" y="345" width="120" height="60" as="geometry" />
        </mxCell>
        <mxCell id="uH8B2-jDxrQE62gsc945-131" value="Offer protection to Kalat" style="rounded=1;whiteSpace=wrap;html=1;fillColor=#f8cecc;strokeColor=#b85450;" parent="WIyWlLk6GJQsqaUBKTNV-1" vertex="1">
          <mxGeometry x="2090" y="345" width="120" height="60" as="geometry" />
        </mxCell>
        <mxCell id="uH8B2-jDxrQE62gsc945-132" value="" style="endArrow=classic;html=1;rounded=0;entryX=0.5;entryY=0;entryDx=0;entryDy=0;exitX=1;exitY=1;exitDx=0;exitDy=0;" parent="WIyWlLk6GJQsqaUBKTNV-1" source="uH8B2-jDxrQE62gsc945-113" target="uH8B2-jDxrQE62gsc945-131" edge="1">
          <mxGeometry width="50" height="50" relative="1" as="geometry">
            <mxPoint x="1840" y="410" as="sourcePoint" />
            <mxPoint x="1890" y="360" as="targetPoint" />
          </mxGeometry>
        </mxCell>
        <mxCell id="uH8B2-jDxrQE62gsc945-133" value="" style="endArrow=classic;html=1;rounded=0;entryX=0.5;entryY=0;entryDx=0;entryDy=0;exitX=0.5;exitY=1;exitDx=0;exitDy=0;" parent="WIyWlLk6GJQsqaUBKTNV-1" source="uH8B2-jDxrQE62gsc945-113" target="uH8B2-jDxrQE62gsc945-130" edge="1">
          <mxGeometry width="50" height="50" relative="1" as="geometry">
            <mxPoint x="1840" y="410" as="sourcePoint" />
            <mxPoint x="1890" y="360" as="targetPoint" />
          </mxGeometry>
        </mxCell>
        <mxCell id="uH8B2-jDxrQE62gsc945-134" value="Invasion of Sind" style="rounded=1;whiteSpace=wrap;html=1;fillColor=#f8cecc;strokeColor=#b85450;" parent="WIyWlLk6GJQsqaUBKTNV-1" vertex="1">
          <mxGeometry x="1828" y="465" width="120" height="60" as="geometry" />
        </mxCell>
        <mxCell id="uH8B2-jDxrQE62gsc945-135" value="" style="endArrow=classic;html=1;rounded=0;entryX=0.5;entryY=0;entryDx=0;entryDy=0;exitX=0.5;exitY=1;exitDx=0;exitDy=0;" parent="WIyWlLk6GJQsqaUBKTNV-1" source="uH8B2-jDxrQE62gsc945-128" target="uH8B2-jDxrQE62gsc945-134" edge="1">
          <mxGeometry width="50" height="50" relative="1" as="geometry">
            <mxPoint x="1840" y="460" as="sourcePoint" />
            <mxPoint x="1890" y="410" as="targetPoint" />
          </mxGeometry>
        </mxCell>
        <mxCell id="uH8B2-jDxrQE62gsc945-136" value="Into Iran" style="rounded=1;whiteSpace=wrap;html=1;fillColor=#f8cecc;strokeColor=#b85450;" parent="WIyWlLk6GJQsqaUBKTNV-1" vertex="1">
          <mxGeometry x="1860" y="570" width="120" height="60" as="geometry" />
        </mxCell>
        <mxCell id="uH8B2-jDxrQE62gsc945-137" value="Into India" style="rounded=1;whiteSpace=wrap;html=1;fillColor=#f8cecc;strokeColor=#b85450;" parent="WIyWlLk6GJQsqaUBKTNV-1" vertex="1">
          <mxGeometry x="2060" y="570" width="120" height="60" as="geometry" />
        </mxCell>
        <mxCell id="uH8B2-jDxrQE62gsc945-138" value="" style="shape=flexArrow;endArrow=classic;startArrow=classic;html=1;rounded=0;entryX=0;entryY=0.5;entryDx=0;entryDy=0;exitX=1;exitY=0.5;exitDx=0;exitDy=0;" parent="WIyWlLk6GJQsqaUBKTNV-1" source="uH8B2-jDxrQE62gsc945-136" target="uH8B2-jDxrQE62gsc945-137" edge="1">
          <mxGeometry width="100" height="100" relative="1" as="geometry">
            <mxPoint x="1970" y="580" as="sourcePoint" />
            <mxPoint x="2070" y="480" as="targetPoint" />
          </mxGeometry>
        </mxCell>
        <mxCell id="uH8B2-jDxrQE62gsc945-139" value="" style="endArrow=none;html=1;rounded=0;" parent="WIyWlLk6GJQsqaUBKTNV-1" edge="1">
          <mxGeometry width="50" height="50" relative="1" as="geometry">
            <mxPoint x="2020" y="610" as="sourcePoint" />
            <mxPoint x="2020" y="590" as="targetPoint" />
          </mxGeometry>
        </mxCell>
        <mxCell id="6J8OtM-L8M6zQh6JfX2V-0" value="Drying up of the Uzboy" style="rounded=1;whiteSpace=wrap;html=1;fillColor=#f8cecc;strokeColor=#b85450;" parent="WIyWlLk6GJQsqaUBKTNV-1" vertex="1">
          <mxGeometry x="490" y="190" width="120" height="60" as="geometry" />
        </mxCell>
        <mxCell id="6J8OtM-L8M6zQh6JfX2V-1" value="Reconstruction of the Uzboy Canals" style="rounded=1;whiteSpace=wrap;html=1;fillColor=#f8cecc;strokeColor=#b85450;" parent="WIyWlLk6GJQsqaUBKTNV-1" vertex="1">
          <mxGeometry x="980" y="2090" width="120" height="60" as="geometry" />
        </mxCell>
        <mxCell id="6J8OtM-L8M6zQh6JfX2V-2" value="Restoration of the Iranian Irregation systems" style="rounded=1;whiteSpace=wrap;html=1;fillColor=#f8cecc;strokeColor=#b85450;" parent="WIyWlLk6GJQsqaUBKTNV-1" vertex="1">
          <mxGeometry x="1130" y="2100" width="120" height="60" as="geometry" />
        </mxCell>
        <mxCell id="uYrsmctZlM4qDPFGHRfF-3" value="" style="edgeStyle=orthogonalEdgeStyle;rounded=0;orthogonalLoop=1;jettySize=auto;html=1;entryX=1;entryY=0;entryDx=0;entryDy=0;exitX=0;exitY=1;exitDx=0;exitDy=0;" parent="WIyWlLk6GJQsqaUBKTNV-1" source="uYrsmctZlM4qDPFGHRfF-1" target="uYrsmctZlM4qDPFGHRfF-0" edge="1">
          <mxGeometry relative="1" as="geometry">
            <Array as="points">
              <mxPoint x="1100" y="2230" />
              <mxPoint x="1100" y="2250" />
            </Array>
          </mxGeometry>
        </mxCell>
        <mxCell id="uYrsmctZlM4qDPFGHRfF-0" value="Land Reform" style="rounded=1;whiteSpace=wrap;html=1;fillColor=#f8cecc;strokeColor=#b85450;" parent="WIyWlLk6GJQsqaUBKTNV-1" vertex="1">
          <mxGeometry x="970" y="2250" width="120" height="60" as="geometry" />
        </mxCell>
        <mxCell id="uYrsmctZlM4qDPFGHRfF-1" value="Reestablish Crownlands" style="rounded=1;whiteSpace=wrap;html=1;fillColor=#f8cecc;strokeColor=#b85450;" parent="WIyWlLk6GJQsqaUBKTNV-1" vertex="1">
          <mxGeometry x="1115" y="2170" width="120" height="60" as="geometry" />
        </mxCell>
        <mxCell id="uYrsmctZlM4qDPFGHRfF-2" value="" style="endArrow=classic;html=1;rounded=0;entryX=0;entryY=0;entryDx=0;entryDy=0;exitX=1;exitY=1;exitDx=0;exitDy=0;" parent="WIyWlLk6GJQsqaUBKTNV-1" source="uH8B2-jDxrQE62gsc945-121" target="uYrsmctZlM4qDPFGHRfF-0" edge="1">
          <mxGeometry width="50" height="50" relative="1" as="geometry">
            <mxPoint x="790" y="1920" as="sourcePoint" />
            <mxPoint x="840" y="1870" as="targetPoint" />
          </mxGeometry>
        </mxCell>
        <mxCell id="uYrsmctZlM4qDPFGHRfF-4" value="" style="endArrow=classic;html=1;rounded=0;entryX=0;entryY=0.5;entryDx=0;entryDy=0;exitX=1;exitY=0.5;exitDx=0;exitDy=0;" parent="WIyWlLk6GJQsqaUBKTNV-1" source="VTuG99v95SFGHNX27neQ-55" target="VTuG99v95SFGHNX27neQ-76" edge="1">
          <mxGeometry width="50" height="50" relative="1" as="geometry">
            <mxPoint x="910" y="1220" as="sourcePoint" />
            <mxPoint x="960" y="1170" as="targetPoint" />
          </mxGeometry>
        </mxCell>
      </root>
    </mxGraphModel>
  </diagram>
</mxfile>
